<svg id="svg" version="1.1" xmlns="http://www.w3.org/2000/svg" xmlns:xlink="http://www.w3.org/1999/xlink" width="400" height="400" viewBox="0, 0, 400,400"><g id="svgg"><path id="path0" d="M82.897 27.900 L 83.000 55.800 93.500 55.907 L 104.000 56.013 104.000 47.007 L 104.000 38.000 111.200 38.000 L 118.400 38.000 118.400 47.000 L 118.400 56.000 128.000 56.000 L 137.600 56.000 137.600 55.000 C 137.600 54.286,137.816 54.000,138.357 54.000 C 139.591 54.000,139.600 53.807,139.600 26.367 L 139.600 0.000 129.000 0.000 L 118.400 0.000 118.400 8.400 L 118.400 16.800 111.200 16.800 L 104.000 16.800 104.000 8.400 L 104.000 0.000 93.397 0.000 L 82.795 0.000 82.897 27.900 M143.200 9.210 L 143.200 18.420 144.145 18.779 C 144.665 18.977,145.203 19.431,145.340 19.788 C 145.559 20.358,146.417 20.422,152.395 20.318 L 159.201 20.200 159.201 37.892 L 159.200 55.585 160.100 55.805 C 160.595 55.926,165.320 55.975,170.600 55.913 L 180.200 55.800 180.304 38.000 L 180.407 20.200 187.236 20.319 C 193.830 20.433,194.073 20.409,194.279 19.619 C 194.419 19.083,194.823 18.800,195.447 18.800 L 196.400 18.800 196.400 9.400 L 196.400 0.000 169.800 0.000 L 143.200 0.000 143.200 9.210 M201.600 26.750 C 201.600 41.463,201.713 54.063,201.850 54.750 L 202.100 56.000 211.650 56.000 L 221.200 56.000 221.200 44.400 L 221.200 32.800 222.200 32.800 C 223.119 32.800,223.200 32.947,223.200 34.600 C 223.200 36.133,223.319 36.400,224.000 36.400 C 224.531 36.400,224.800 36.667,224.800 37.192 C 224.800 37.704,225.154 38.074,225.800 38.236 C 226.652 38.450,226.800 38.717,226.800 40.043 C 226.800 41.333,226.937 41.600,227.600 41.600 C 228.187 41.600,228.400 41.867,228.400 42.600 C 228.400 43.400,228.600 43.600,229.400 43.600 C 230.319 43.600,230.400 43.747,230.400 45.400 L 230.400 47.200 233.000 47.200 C 235.473 47.200,235.600 47.153,235.600 46.247 C 235.600 45.630,235.882 45.219,236.400 45.084 C 237.036 44.918,237.200 44.538,237.200 43.237 C 237.200 41.758,237.296 41.600,238.200 41.600 C 239.074 41.600,239.200 41.426,239.200 40.214 C 239.200 39.238,239.436 38.702,240.000 38.400 C 240.440 38.165,240.800 37.631,240.800 37.214 C 240.800 36.732,241.128 36.409,241.700 36.328 C 242.289 36.244,242.646 35.878,242.732 35.268 C 242.805 34.755,243.207 33.993,243.626 33.574 C 244.375 32.825,244.390 33.004,244.494 44.306 L 244.600 55.800 254.300 55.907 L 264.000 56.014 264.000 55.007 C 264.000 54.267,264.212 54.000,264.800 54.000 C 265.592 54.000,265.600 53.733,265.600 27.000 L 265.600 0.000 254.200 0.000 C 247.435 0.000,242.800 0.151,242.800 0.372 C 242.800 0.577,242.395 0.802,241.900 0.872 C 241.152 0.978,240.979 1.287,240.877 2.700 C 240.778 4.074,240.605 4.400,239.977 4.400 C 239.323 4.400,239.200 4.684,239.200 6.200 C 239.200 7.853,239.119 8.000,238.200 8.000 C 237.400 8.000,237.200 8.200,237.200 9.000 C 237.200 9.733,236.987 10.000,236.400 10.000 C 235.733 10.000,235.600 10.267,235.600 11.600 C 235.600 12.928,235.465 13.200,234.808 13.200 C 234.296 13.200,233.926 13.554,233.764 14.200 C 233.317 15.982,232.000 15.506,232.000 13.563 C 232.000 12.288,231.831 11.881,231.237 11.726 C 230.817 11.616,230.381 11.169,230.267 10.733 C 230.153 10.297,229.686 9.843,229.230 9.724 C 228.570 9.551,228.400 9.189,228.400 7.953 C 228.400 6.698,228.255 6.400,227.645 6.400 C 227.058 6.400,226.831 6.002,226.621 4.600 C 226.408 3.178,226.188 2.800,225.575 2.800 C 225.015 2.800,224.800 2.523,224.800 1.800 C 224.800 1.067,224.587 0.800,224.000 0.800 C 223.560 0.800,223.200 0.620,223.200 0.400 C 223.200 0.143,219.333 0.000,212.400 0.000 L 201.600 0.000 201.600 26.750 M271.200 28.000 L 271.200 56.000 294.200 56.000 L 317.200 56.000 317.200 45.400 L 317.200 34.800 304.800 34.800 L 292.400 34.800 292.400 17.400 L 292.400 0.000 281.800 0.000 L 271.200 0.000 271.200 28.000 M56.000 79.400 C 56.000 79.950,56.135 80.400,56.300 80.400 C 56.465 80.400,56.600 79.950,56.600 79.400 C 56.600 78.850,56.465 78.400,56.300 78.400 C 56.135 78.400,56.000 78.850,56.000 79.400 M339.230 120.564 C 338.935 120.920,338.906 121.219,339.153 121.371 C 339.368 121.504,339.658 121.430,339.796 121.207 C 339.934 120.983,339.902 120.797,339.724 120.794 C 339.546 120.791,339.670 120.613,340.000 120.400 C 340.330 120.187,340.397 120.009,340.149 120.006 C 339.901 120.003,339.487 120.254,339.230 120.564 M333.883 180.812 C 333.511 181.245,333.364 181.600,333.555 181.600 C 333.995 181.600,334.974 180.441,334.736 180.202 C 334.638 180.104,334.254 180.379,333.883 180.812 M317.802 360.398 C 317.403 360.839,317.262 361.200,317.489 361.200 C 317.992 361.200,318.990 360.057,318.721 359.788 C 318.615 359.682,318.202 359.956,317.802 360.398 " stroke="none" fill="#040404" fill-rule="evenodd"></path><path id="path1" d="M58.240 77.494 C 58.077 77.657,57.667 77.792,57.329 77.795 C 56.521 77.802,56.314 81.057,57.073 81.816 C 57.526 82.269,58.004 91.070,58.012 99.075 C 58.013 99.593,58.334 100.052,58.799 100.200 C 59.549 100.438,59.591 100.906,59.693 110.125 C 59.771 117.169,59.927 119.800,60.267 119.800 C 61.119 119.800,61.157 120.169,61.201 128.812 C 61.255 139.126,61.428 140.830,62.453 141.098 C 63.156 141.282,63.200 141.853,63.200 150.721 C 63.200 159.555,63.250 160.201,63.989 160.989 C 64.721 161.768,64.781 162.446,64.816 170.307 C 64.838 175.183,65.015 178.886,65.233 179.021 C 65.442 179.150,65.504 179.432,65.370 179.649 C 65.236 179.865,65.503 180.369,65.963 180.768 C 66.766 181.465,66.800 181.859,66.800 190.584 C 66.800 199.338,66.830 199.683,67.600 199.884 C 68.334 200.076,68.888 212.863,68.416 218.700 C 68.376 219.195,68.530 219.600,68.759 219.600 C 68.988 219.600,69.067 219.881,68.935 220.224 C 68.776 220.641,68.979 220.922,69.548 221.071 C 70.387 221.290,70.400 221.440,70.400 230.643 C 70.400 239.560,70.437 240.016,71.200 240.493 C 71.963 240.969,72.000 241.426,72.000 250.242 C 72.000 258.704,72.064 259.574,72.755 260.452 C 73.417 261.293,73.541 262.403,73.753 269.406 C 74.033 278.613,74.084 279.247,74.528 279.105 C 75.371 278.835,75.581 281.011,75.614 290.340 C 75.646 299.666,75.702 300.426,76.394 300.911 C 77.072 301.386,77.155 302.218,77.316 310.216 C 77.511 319.901,77.597 320.625,78.547 320.544 C 79.128 320.495,79.678 336.308,79.209 339.600 C 79.162 339.930,79.252 340.074,79.410 339.919 C 79.567 339.765,79.944 339.887,80.248 340.190 C 80.992 340.935,80.954 341.425,80.200 340.800 C 79.816 340.481,79.600 340.456,79.600 340.731 C 79.600 340.967,79.864 341.308,80.187 341.489 C 80.670 341.759,80.781 343.244,80.816 349.903 C 80.840 354.351,81.018 358.087,81.212 358.207 C 81.406 358.327,81.463 358.692,81.338 359.017 C 81.171 359.453,81.298 359.537,81.821 359.337 C 82.308 359.150,82.440 359.211,82.242 359.532 C 82.083 359.789,82.143 360.000,82.376 360.000 C 82.649 360.000,82.800 361.570,82.800 364.400 C 82.800 368.533,82.848 368.800,83.600 368.800 C 84.118 368.800,84.400 369.067,84.400 369.557 C 84.400 370.527,85.151 370.800,87.813 370.800 C 89.431 370.800,90.056 370.970,90.347 371.491 C 90.645 372.024,91.413 372.215,93.731 372.332 C 96.207 372.457,96.761 372.609,96.917 373.205 C 97.065 373.770,97.689 373.989,99.805 374.215 C 101.613 374.409,102.751 374.751,103.252 375.252 C 103.838 375.838,104.597 376.000,106.753 376.000 C 109.183 376.000,109.532 376.095,109.719 376.811 C 109.836 377.258,110.082 377.596,110.266 377.564 C 112.732 377.130,116.355 377.676,116.472 378.500 C 116.587 379.312,116.852 379.412,119.177 379.521 C 121.189 379.616,121.874 379.813,122.300 380.421 C 122.755 381.070,123.325 381.200,125.728 381.200 C 128.333 381.200,128.648 381.286,129.005 382.100 C 129.362 382.913,129.718 383.011,132.700 383.116 C 135.645 383.220,136.000 383.315,136.000 383.999 C 136.000 384.672,136.350 384.779,138.900 384.882 C 141.488 384.987,141.786 385.081,141.670 385.754 C 141.577 386.295,141.715 386.442,142.157 386.272 C 142.497 386.142,142.881 386.207,143.011 386.417 C 143.141 386.628,144.386 386.800,145.777 386.800 C 147.970 386.800,148.335 386.906,148.516 387.600 C 148.700 388.303,149.062 388.400,151.514 388.400 C 153.693 388.400,154.422 388.553,154.851 389.100 C 155.358 389.747,155.339 389.756,154.600 389.219 C 153.978 388.768,153.910 388.763,154.296 389.195 C 154.871 389.840,155.318 389.950,158.682 390.270 C 160.047 390.400,161.151 390.618,161.135 390.753 C 161.000 391.878,161.340 392.000,164.600 392.000 C 167.733 392.000,168.000 392.063,168.000 392.800 C 168.000 393.524,168.267 393.600,170.800 393.600 C 173.281 393.600,173.600 393.686,173.600 394.357 C 173.600 395.367,174.348 395.600,177.586 395.600 C 179.970 395.600,180.333 395.699,180.516 396.400 C 180.697 397.091,181.062 397.200,183.198 397.200 C 185.273 397.200,185.788 397.344,186.392 398.090 C 186.998 398.838,187.601 399.005,190.157 399.134 C 191.830 399.218,193.200 399.448,193.200 399.644 C 193.200 400.234,205.496 400.093,205.736 399.500 C 205.894 399.112,206.025 399.122,206.321 399.545 C 206.552 399.875,206.762 399.925,206.852 399.672 C 206.933 399.442,208.170 399.197,209.600 399.127 C 211.946 399.012,212.212 398.912,212.328 398.100 C 212.448 397.252,215.346 396.797,218.279 397.165 C 218.543 397.198,218.954 396.860,219.193 396.413 C 219.555 395.737,220.025 395.600,221.988 395.600 C 224.732 395.600,226.400 395.075,226.400 394.210 C 226.400 393.721,226.958 393.600,229.200 393.600 C 231.733 393.600,232.000 393.524,232.000 392.800 C 232.000 392.076,232.267 392.000,234.800 392.000 C 236.400 392.000,237.600 391.829,237.600 391.600 C 237.600 391.380,237.825 391.245,238.100 391.300 C 238.375 391.355,238.555 391.175,238.500 390.900 C 238.434 390.572,238.915 390.398,239.900 390.396 C 242.823 390.387,244.400 389.950,244.400 389.148 C 244.400 388.483,244.738 388.400,247.436 388.400 C 249.978 388.400,250.580 388.270,251.136 387.604 C 251.642 386.998,252.346 386.792,254.088 386.743 C 255.920 386.690,256.551 386.490,257.258 385.739 C 258.028 384.918,258.511 384.800,261.093 384.800 C 262.718 384.800,263.958 384.656,263.850 384.481 C 263.370 383.704,264.404 383.263,267.001 383.136 C 269.162 383.031,269.800 382.863,269.800 382.400 C 269.800 382.070,270.010 381.800,270.267 381.800 C 270.523 381.800,270.868 381.665,271.033 381.500 C 271.198 381.335,272.473 381.200,273.867 381.200 C 276.133 381.200,276.400 381.116,276.400 380.400 C 276.400 379.676,276.667 379.600,279.219 379.600 C 281.698 379.600,282.148 379.482,282.948 378.618 C 283.743 377.760,284.259 377.621,287.029 377.518 C 289.763 377.416,290.192 377.304,290.144 376.700 C 290.097 376.101,290.455 376.000,292.622 376.000 C 294.628 376.000,295.263 375.847,295.677 375.262 C 296.042 374.747,296.927 374.447,298.600 374.272 C 302.465 373.866,302.586 373.833,302.887 373.100 C 303.119 372.534,303.675 372.400,305.787 372.400 C 308.133 372.400,308.400 372.318,308.400 371.600 C 308.400 370.872,308.667 370.800,311.367 370.800 C 314.854 370.800,315.600 370.581,315.600 369.557 C 315.600 369.067,315.882 368.800,316.400 368.800 C 317.145 368.800,317.200 368.533,317.200 364.926 C 317.200 361.514,317.302 360.943,318.059 360.138 C 318.784 359.366,318.836 359.125,318.391 358.589 C 317.952 358.060,317.959 357.975,318.432 358.077 C 319.127 358.227,319.105 358.522,319.157 348.300 C 319.192 341.493,319.300 340.000,319.757 340.000 C 320.703 340.000,320.800 339.027,320.800 329.544 C 320.800 323.518,320.938 320.438,321.200 320.600 C 321.420 320.736,321.600 320.646,321.600 320.400 C 321.600 320.154,321.751 320.046,321.935 320.160 C 322.119 320.273,322.238 319.842,322.200 319.200 C 322.162 318.558,322.253 318.109,322.402 318.201 C 322.551 318.293,322.711 314.373,322.757 309.488 C 322.834 301.301,322.902 300.544,323.620 299.778 C 324.344 299.008,324.400 298.323,324.400 290.274 C 324.400 282.371,324.466 281.534,325.139 280.861 C 325.966 280.034,326.358 275.547,326.399 266.420 C 326.416 262.619,326.561 261.285,327.011 260.788 C 327.730 259.993,327.782 259.446,327.100 259.845 C 326.825 260.006,326.902 259.792,327.271 259.369 C 327.851 258.703,327.947 257.422,327.985 249.834 C 328.023 242.105,328.110 240.994,328.714 240.434 C 329.544 239.667,329.467 240.637,329.540 230.000 C 329.592 222.407,329.684 221.200,330.210 221.200 C 331.341 221.200,331.600 219.182,331.600 210.374 C 331.600 202.237,331.656 201.544,332.373 200.827 C 333.089 200.111,333.148 199.382,333.185 190.797 C 333.222 182.344,333.290 181.470,333.972 180.738 C 335.040 179.591,335.130 178.753,335.181 169.428 C 335.225 161.519,335.272 161.025,336.033 160.492 C 336.476 160.182,336.809 159.629,336.773 159.264 C 336.300 154.437,336.879 141.229,337.574 141.008 C 337.999 140.873,338.367 140.456,338.392 140.081 C 338.416 139.707,338.499 138.500,338.577 137.400 C 338.655 136.300,338.752 132.107,338.792 128.083 C 338.859 121.346,338.926 120.728,339.632 120.287 C 340.355 119.836,340.400 119.238,340.400 110.118 C 340.400 100.941,340.441 100.406,341.175 100.013 C 341.601 99.785,341.959 99.284,341.970 98.899 C 341.981 98.515,342.089 94.625,342.211 90.256 C 342.387 83.900,342.553 82.190,343.039 81.704 C 343.373 81.370,343.546 80.835,343.423 80.516 C 343.300 80.196,343.200 79.849,343.200 79.744 C 343.200 79.639,343.022 79.663,342.805 79.797 C 342.578 79.937,342.511 79.777,342.646 79.423 C 342.777 79.083,343.029 78.894,343.207 79.004 C 343.384 79.114,343.486 78.903,343.432 78.535 C 343.378 78.167,342.988 77.766,342.567 77.644 C 341.398 77.304,58.578 77.155,58.240 77.494 M288.266 136.825 C 290.116 137.528,290.678 140.193,289.391 142.157 C 288.927 142.866,288.696 145.157,288.416 151.843 C 288.162 157.928,287.865 161.088,287.443 162.200 C 287.108 163.080,286.819 165.150,286.800 166.800 C 286.759 170.298,286.291 173.069,285.628 173.732 C 285.276 174.084,268.567 174.250,218.280 174.400 L 151.400 174.600 151.534 181.200 C 151.618 185.335,151.894 188.696,152.273 190.200 C 152.632 191.623,152.998 195.739,153.172 200.313 C 153.369 205.495,153.626 208.185,153.953 208.513 C 154.333 208.892,168.603 209.000,218.158 209.000 C 273.579 209.000,281.967 209.076,282.583 209.587 C 283.440 210.297,283.144 217.752,282.142 220.707 C 281.749 221.866,281.458 225.466,281.235 231.934 C 281.022 238.092,280.732 241.779,280.415 242.372 C 280.113 242.936,279.788 246.425,279.571 251.414 C 279.336 256.813,279.021 260.052,278.632 261.069 C 278.230 262.119,277.926 265.494,277.666 271.800 C 277.447 277.108,277.083 281.508,276.806 282.200 C 276.541 282.860,276.174 286.820,275.990 291.000 C 275.790 295.536,275.418 299.406,275.066 300.600 C 274.684 301.895,274.411 305.146,274.291 309.827 C 274.053 319.133,273.750 319.699,268.616 320.426 C 267.161 320.632,265.572 321.057,265.085 321.369 C 264.598 321.682,263.300 322.064,262.200 322.218 C 261.100 322.372,259.898 322.762,259.530 323.084 C 259.161 323.406,257.701 323.814,256.285 323.989 C 254.870 324.165,253.281 324.582,252.756 324.916 C 252.230 325.250,250.862 325.647,249.715 325.797 C 248.568 325.948,246.955 326.415,246.130 326.835 C 245.306 327.256,243.991 327.600,243.209 327.600 C 242.428 327.600,241.161 327.934,240.394 328.343 C 239.627 328.752,238.100 329.216,237.000 329.374 C 235.900 329.533,234.572 329.937,234.049 330.274 C 233.526 330.610,231.996 330.979,230.649 331.094 C 229.302 331.209,227.906 331.559,227.547 331.871 C 227.188 332.183,225.658 332.628,224.147 332.859 C 222.636 333.091,221.130 333.514,220.800 333.800 C 220.470 334.086,218.970 334.508,217.467 334.738 C 215.963 334.969,214.503 335.349,214.222 335.582 C 213.940 335.816,212.667 336.200,211.392 336.435 C 210.118 336.671,208.698 337.109,208.237 337.408 C 207.777 337.707,206.410 338.068,205.200 338.209 C 203.990 338.350,202.318 338.722,201.485 339.036 C 200.183 339.525,199.818 339.527,198.885 339.044 C 198.288 338.735,196.719 338.355,195.400 338.199 C 194.080 338.043,192.583 337.652,192.074 337.331 C 191.564 337.010,190.063 336.572,188.737 336.359 C 187.412 336.145,185.939 335.723,185.464 335.421 C 184.989 335.118,183.388 334.687,181.907 334.463 C 180.426 334.239,178.811 333.773,178.318 333.428 C 177.825 333.082,176.784 332.800,176.005 332.800 C 175.226 332.800,173.961 332.465,173.194 332.056 C 172.427 331.647,170.720 331.182,169.400 331.024 C 168.080 330.865,166.611 330.487,166.136 330.182 C 165.661 329.878,164.188 329.455,162.863 329.241 C 161.537 329.028,160.036 328.592,159.526 328.274 C 159.017 327.956,157.632 327.590,156.449 327.460 C 155.267 327.331,153.900 326.964,153.412 326.645 C 152.924 326.325,151.482 325.871,150.208 325.635 C 148.933 325.400,147.660 325.016,147.378 324.782 C 147.097 324.549,145.637 324.171,144.133 323.943 C 142.630 323.715,141.023 323.289,140.563 322.996 C 140.102 322.703,138.752 322.283,137.563 322.062 C 136.373 321.841,134.860 321.378,134.200 321.033 C 133.540 320.687,132.460 320.403,131.800 320.400 C 126.968 320.381,126.193 319.225,125.849 311.514 C 125.699 308.140,125.317 304.519,125.000 303.466 C 124.633 302.249,124.328 298.618,124.160 293.477 C 123.984 288.085,123.712 284.947,123.342 284.038 C 122.994 283.182,122.630 279.548,122.360 274.238 C 122.124 269.597,121.901 265.283,121.865 264.651 C 121.714 261.983,122.015 261.938,139.434 261.986 C 159.291 262.040,158.781 261.915,158.794 266.738 C 158.797 267.915,159.066 269.805,159.391 270.938 C 159.762 272.231,160.101 276.111,160.302 281.344 C 160.669 290.951,160.770 291.200,164.297 291.200 C 165.359 291.200,166.620 291.511,167.353 291.953 C 168.039 292.367,169.500 292.831,170.600 292.984 C 171.700 293.137,172.985 293.509,173.456 293.812 C 173.927 294.114,175.277 294.481,176.456 294.627 C 177.635 294.774,179.362 295.221,180.293 295.621 C 181.224 296.021,182.844 296.470,183.893 296.618 C 184.942 296.766,186.178 297.124,186.641 297.414 C 187.103 297.704,188.888 298.137,190.606 298.376 C 192.324 298.615,193.946 298.989,194.210 299.208 C 195.835 300.557,203.899 300.443,206.110 299.040 C 206.600 298.730,208.170 298.349,209.600 298.195 C 211.030 298.041,212.490 297.658,212.845 297.345 C 213.200 297.032,214.460 296.668,215.645 296.536 C 216.830 296.405,218.340 295.982,219.000 295.597 C 219.660 295.212,221.338 294.775,222.728 294.626 C 224.119 294.476,225.829 294.005,226.528 293.578 C 227.228 293.152,228.379 292.802,229.088 292.801 C 229.796 292.801,231.056 292.457,231.888 292.038 C 232.719 291.619,234.390 291.161,235.600 291.020 L 237.800 290.765 238.560 288.482 C 239.139 286.744,239.391 284.389,239.617 278.600 C 239.805 273.754,240.146 270.136,240.556 268.616 C 240.995 266.990,241.203 264.509,241.211 260.816 C 241.224 254.173,241.753 248.384,242.449 247.271 C 242.735 246.812,242.847 246.314,242.697 246.164 C 242.547 246.014,215.104 245.811,181.712 245.712 C 136.197 245.578,120.888 245.416,120.553 245.066 C 119.541 244.012,119.123 241.450,118.913 235.000 C 118.787 231.144,118.450 227.334,118.135 226.200 C 117.828 225.094,117.403 220.444,117.185 215.800 C 116.968 211.180,116.516 205.928,116.181 204.129 C 115.845 202.330,115.405 197.517,115.202 193.433 C 114.995 189.278,114.627 185.624,114.365 185.135 C 114.088 184.617,113.751 180.747,113.538 175.631 C 113.336 170.777,112.925 165.950,112.599 164.600 C 112.280 163.280,111.848 158.870,111.638 154.800 C 111.429 150.730,111.057 146.872,110.811 146.226 C 109.962 143.997,109.805 138.956,110.550 137.820 L 111.216 136.803 155.508 136.700 C 179.869 136.643,219.453 136.552,243.474 136.498 C 273.564 136.431,287.496 136.532,288.266 136.825 " stroke="none" fill="#e65327" fill-rule="evenodd"></path><path id="path2" d="M157.800 138.813 C 132.940 138.930,112.527 139.065,112.438 139.113 C 112.062 139.315,112.858 151.784,113.374 153.763 C 113.694 154.993,114.051 159.173,114.201 163.462 C 114.346 167.608,114.709 172.352,115.006 174.005 C 115.304 175.658,115.746 180.068,115.989 183.805 C 116.233 187.542,116.682 191.680,116.987 193.000 C 117.292 194.320,117.658 198.730,117.799 202.800 C 117.940 206.870,118.303 211.460,118.607 213.000 C 118.910 214.540,119.274 218.140,119.415 221.000 C 119.557 223.860,120.016 228.290,120.436 230.844 C 120.856 233.399,121.200 236.751,121.200 238.294 C 121.200 242.851,121.452 243.568,123.151 243.834 C 123.948 243.960,141.700 244.143,162.600 244.241 C 241.310 244.613,242.712 244.629,243.378 245.182 C 244.221 245.881,244.175 248.750,243.200 256.200 C 242.768 259.500,242.401 263.550,242.383 265.200 C 242.365 266.850,242.093 270.810,241.779 274.000 C 241.464 277.190,241.019 282.118,240.790 284.951 C 240.326 290.693,240.059 291.491,238.488 291.816 C 237.890 291.940,236.500 292.378,235.400 292.791 C 234.300 293.203,232.590 293.720,231.600 293.940 C 230.610 294.160,229.080 294.616,228.200 294.953 C 227.320 295.289,225.918 295.573,225.084 295.582 C 224.250 295.592,222.900 295.938,222.084 296.352 C 221.268 296.766,219.790 297.237,218.800 297.399 C 217.810 297.562,216.533 297.933,215.963 298.225 C 215.392 298.517,213.952 298.870,212.763 299.010 C 211.573 299.150,209.790 299.590,208.800 299.989 C 207.810 300.388,206.190 300.845,205.200 301.005 C 204.210 301.164,202.914 301.543,202.320 301.847 C 200.922 302.563,197.862 302.556,196.466 301.834 C 195.865 301.523,194.659 301.139,193.786 300.981 C 192.914 300.823,191.674 300.426,191.031 300.100 C 190.387 299.774,188.622 299.352,187.108 299.162 C 185.594 298.972,183.780 298.556,183.078 298.238 C 182.375 297.920,180.990 297.480,180.000 297.260 C 179.010 297.039,177.390 296.577,176.400 296.232 C 175.410 295.888,173.747 295.504,172.705 295.379 C 171.662 295.254,170.568 294.911,170.272 294.615 C 169.977 294.320,168.490 293.949,166.968 293.791 C 165.445 293.633,163.750 293.285,163.200 293.018 C 162.650 292.752,161.660 292.272,161.000 291.952 C 159.890 291.414,159.778 291.162,159.508 288.585 C 159.347 287.053,159.032 284.720,158.808 283.400 C 158.290 280.345,157.589 271.791,157.555 268.097 C 157.511 263.499,158.740 263.800,139.991 263.800 C 131.233 263.800,123.938 263.929,123.781 264.086 C 123.360 264.506,123.510 267.920,124.170 272.957 C 124.491 275.401,124.867 280.730,125.006 284.800 C 125.158 289.238,125.487 292.986,125.827 294.164 C 126.139 295.243,126.497 298.663,126.623 301.764 C 126.748 304.864,127.097 308.660,127.398 310.200 C 127.699 311.740,128.057 314.004,128.193 315.230 C 128.485 317.864,130.020 318.917,134.520 319.567 C 135.884 319.764,137.540 320.211,138.200 320.560 C 138.860 320.909,139.940 321.204,140.600 321.215 C 141.260 321.226,142.520 321.510,143.400 321.846 C 144.280 322.183,146.090 322.680,147.422 322.952 C 148.754 323.223,150.279 323.750,150.811 324.123 C 151.343 324.495,152.330 324.800,153.004 324.800 C 153.679 324.800,154.885 325.134,155.685 325.541 C 156.485 325.949,158.158 326.402,159.404 326.549 C 160.650 326.695,162.207 327.093,162.865 327.433 C 163.522 327.774,165.062 328.215,166.285 328.414 C 167.509 328.613,168.801 329.027,169.155 329.334 C 169.510 329.642,170.940 330.006,172.334 330.144 C 173.728 330.282,175.438 330.652,176.134 330.967 C 176.830 331.282,178.350 331.732,179.511 331.968 C 180.673 332.204,182.023 332.646,182.511 332.951 C 183.000 333.255,184.368 333.610,185.551 333.740 C 186.733 333.869,188.087 334.227,188.559 334.537 C 189.031 334.846,190.224 335.231,191.209 335.392 C 192.194 335.553,193.893 336.065,194.985 336.528 C 197.815 337.731,203.115 337.703,205.484 336.474 C 206.410 335.993,207.580 335.592,208.084 335.582 C 208.588 335.573,209.720 335.287,210.600 334.946 C 211.480 334.606,213.280 334.095,214.600 333.810 C 215.920 333.525,217.630 333.021,218.400 332.691 C 219.170 332.360,220.610 331.959,221.600 331.800 C 222.590 331.640,223.614 331.337,223.876 331.126 C 224.138 330.914,225.668 330.497,227.276 330.198 C 228.884 329.898,230.920 329.379,231.800 329.044 C 232.680 328.709,233.811 328.427,234.313 328.418 C 234.815 328.408,235.895 328.119,236.713 327.775 C 237.531 327.432,239.370 326.908,240.800 326.611 C 242.230 326.314,244.210 325.801,245.200 325.470 C 249.330 324.091,251.531 323.452,253.800 322.976 C 255.120 322.699,256.920 322.194,257.800 321.854 C 258.680 321.513,259.814 321.227,260.320 321.218 C 260.826 321.208,261.775 320.923,262.430 320.585 C 263.084 320.246,264.607 319.787,265.813 319.564 C 272.000 318.420,272.534 317.237,273.203 303.200 C 273.418 298.690,273.858 293.290,274.181 291.200 C 274.504 289.110,274.878 285.510,275.012 283.200 C 275.146 280.890,275.590 276.300,275.999 273.000 C 276.407 269.700,276.857 264.480,276.998 261.400 C 277.139 258.320,277.416 254.630,277.614 253.200 C 277.811 251.770,278.157 248.260,278.383 245.400 C 278.609 242.540,279.149 236.870,279.582 232.800 C 280.600 223.255,281.277 211.117,280.818 210.658 C 280.616 210.456,253.289 210.333,217.080 210.371 C 160.712 210.430,153.627 210.370,153.084 209.827 C 152.681 209.424,152.381 208.021,152.204 205.708 C 152.055 203.779,151.771 201.572,151.573 200.803 C 151.374 200.035,151.005 196.165,150.754 192.203 C 150.503 188.242,150.116 184.773,149.895 184.495 C 149.161 183.571,148.818 175.180,149.450 173.597 L 150.010 172.193 216.899 172.197 L 283.789 172.200 284.338 171.054 C 285.022 169.628,285.453 166.603,286.007 159.328 C 286.245 156.208,286.615 153.058,286.829 152.328 C 287.569 149.799,287.794 139.859,287.124 139.303 C 286.405 138.706,227.715 138.484,157.800 138.813 " stroke="none" fill="#f4f1ef" fill-rule="evenodd"></path><path id="path3" d="M342.184 78.025 C 342.027 78.281,342.124 78.629,342.400 78.800 C 342.687 78.977,342.768 79.328,342.589 79.617 C 342.386 79.947,342.438 80.024,342.738 79.838 C 342.992 79.681,343.200 79.733,343.200 79.953 C 343.200 80.173,343.020 80.464,342.800 80.600 C 342.580 80.736,342.400 81.053,342.400 81.304 C 342.400 82.318,343.357 80.762,343.436 79.618 C 343.526 78.312,342.676 77.230,342.184 78.025 M155.508 136.700 L 111.216 136.803 110.550 137.820 C 109.805 138.956,109.962 143.997,110.811 146.226 C 111.057 146.872,111.429 150.730,111.638 154.800 C 111.848 158.870,112.280 163.280,112.599 164.600 C 112.925 165.950,113.336 170.777,113.538 175.631 C 113.751 180.747,114.088 184.617,114.365 185.135 C 114.627 185.624,114.995 189.278,115.202 193.433 C 115.405 197.517,115.845 202.330,116.181 204.129 C 116.516 205.928,116.968 211.180,117.185 215.800 C 117.403 220.444,117.828 225.094,118.135 226.200 C 118.450 227.334,118.787 231.144,118.913 235.000 C 119.123 241.450,119.541 244.012,120.553 245.066 C 120.888 245.416,136.197 245.578,181.712 245.712 C 215.104 245.811,242.547 246.014,242.697 246.164 C 242.847 246.314,242.735 246.812,242.449 247.271 C 241.753 248.384,241.224 254.173,241.211 260.816 C 241.203 264.509,240.995 266.990,240.556 268.616 C 240.146 270.136,239.805 273.754,239.617 278.600 C 239.391 284.389,239.139 286.744,238.560 288.482 L 237.800 290.765 235.600 291.020 C 234.390 291.161,232.719 291.619,231.888 292.038 C 231.056 292.457,229.796 292.801,229.088 292.801 C 228.379 292.802,227.228 293.152,226.528 293.578 C 225.829 294.005,224.119 294.476,222.728 294.626 C 221.338 294.775,219.660 295.212,219.000 295.597 C 218.340 295.982,216.830 296.405,215.645 296.536 C 214.460 296.668,213.200 297.032,212.845 297.345 C 212.490 297.658,211.030 298.041,209.600 298.195 C 208.170 298.349,206.600 298.730,206.110 299.040 C 203.899 300.443,195.835 300.557,194.210 299.208 C 193.946 298.989,192.324 298.615,190.606 298.376 C 188.888 298.137,187.103 297.704,186.641 297.414 C 186.178 297.124,184.942 296.766,183.893 296.618 C 182.844 296.470,181.224 296.021,180.293 295.621 C 179.362 295.221,177.635 294.774,176.456 294.627 C 175.277 294.481,173.927 294.114,173.456 293.812 C 172.985 293.509,171.700 293.137,170.600 292.984 C 169.500 292.831,168.039 292.367,167.353 291.953 C 166.620 291.511,165.359 291.200,164.297 291.200 C 160.770 291.200,160.669 290.951,160.302 281.344 C 160.101 276.111,159.762 272.231,159.391 270.938 C 159.066 269.805,158.797 267.915,158.794 266.738 C 158.781 261.915,159.291 262.040,139.434 261.986 C 122.015 261.938,121.714 261.983,121.865 264.651 C 121.901 265.283,122.124 269.597,122.360 274.238 C 122.630 279.548,122.994 283.182,123.342 284.038 C 123.712 284.947,123.984 288.085,124.160 293.477 C 124.328 298.618,124.633 302.249,125.000 303.466 C 125.317 304.519,125.699 308.140,125.849 311.514 C 126.193 319.225,126.968 320.381,131.800 320.400 C 132.460 320.403,133.540 320.687,134.200 321.033 C 134.860 321.378,136.373 321.841,137.563 322.062 C 138.752 322.283,140.102 322.703,140.563 322.996 C 141.023 323.289,142.630 323.715,144.133 323.943 C 145.637 324.171,147.097 324.549,147.378 324.782 C 147.660 325.016,148.933 325.400,150.208 325.635 C 151.482 325.871,152.924 326.325,153.412 326.645 C 153.900 326.964,155.267 327.331,156.449 327.460 C 157.632 327.590,159.017 327.956,159.526 328.274 C 160.036 328.592,161.537 329.028,162.863 329.241 C 164.188 329.455,165.661 329.878,166.136 330.182 C 166.611 330.487,168.080 330.865,169.400 331.024 C 170.720 331.182,172.427 331.647,173.194 332.056 C 173.961 332.465,175.226 332.800,176.005 332.800 C 176.784 332.800,177.825 333.082,178.318 333.428 C 178.811 333.773,180.426 334.239,181.907 334.463 C 183.388 334.687,184.989 335.118,185.464 335.421 C 185.939 335.723,187.412 336.145,188.737 336.359 C 190.063 336.572,191.564 337.010,192.074 337.331 C 192.583 337.652,194.080 338.043,195.400 338.199 C 196.719 338.355,198.288 338.735,198.885 339.044 C 199.818 339.527,200.183 339.525,201.485 339.036 C 202.318 338.722,203.990 338.350,205.200 338.209 C 206.410 338.068,207.777 337.707,208.237 337.408 C 208.698 337.109,210.118 336.671,211.392 336.435 C 212.667 336.200,213.940 335.816,214.222 335.582 C 214.503 335.349,215.963 334.969,217.467 334.738 C 218.970 334.508,220.470 334.086,220.800 333.800 C 221.130 333.514,222.636 333.091,224.147 332.859 C 225.658 332.628,227.188 332.183,227.547 331.871 C 227.906 331.559,229.302 331.209,230.649 331.094 C 231.996 330.979,233.526 330.610,234.049 330.274 C 234.572 329.937,235.900 329.533,237.000 329.374 C 238.100 329.216,239.627 328.752,240.394 328.343 C 241.161 327.934,242.428 327.600,243.209 327.600 C 243.991 327.600,245.306 327.256,246.130 326.835 C 246.955 326.415,248.568 325.948,249.715 325.797 C 250.862 325.647,252.230 325.250,252.756 324.916 C 253.281 324.582,254.870 324.165,256.285 323.989 C 257.701 323.814,259.161 323.406,259.530 323.084 C 259.898 322.762,261.100 322.372,262.200 322.218 C 263.300 322.064,264.598 321.682,265.085 321.369 C 265.572 321.057,267.161 320.632,268.616 320.426 C 273.750 319.699,274.053 319.133,274.291 309.827 C 274.411 305.146,274.684 301.895,275.066 300.600 C 275.418 299.406,275.790 295.536,275.990 291.000 C 276.174 286.820,276.541 282.860,276.806 282.200 C 277.083 281.508,277.447 277.108,277.666 271.800 C 277.926 265.494,278.230 262.119,278.632 261.069 C 279.021 260.052,279.336 256.813,279.571 251.414 C 279.788 246.425,280.113 242.936,280.415 242.372 C 280.732 241.779,281.022 238.092,281.235 231.934 C 281.458 225.466,281.749 221.866,282.142 220.707 C 283.144 217.752,283.440 210.297,282.583 209.587 C 281.967 209.076,273.579 209.000,218.158 209.000 C 168.603 209.000,154.333 208.892,153.953 208.513 C 153.626 208.185,153.369 205.495,153.172 200.313 C 152.998 195.739,152.632 191.623,152.273 190.200 C 151.894 188.696,151.618 185.335,151.534 181.200 L 151.400 174.600 218.280 174.400 C 268.567 174.250,285.276 174.084,285.628 173.732 C 286.291 173.069,286.759 170.298,286.800 166.800 C 286.819 165.150,287.108 163.080,287.443 162.200 C 287.865 161.088,288.162 157.928,288.416 151.843 C 288.696 145.157,288.927 142.866,289.391 142.157 C 290.028 141.185,290.204 138.540,289.686 137.725 C 288.875 136.449,287.027 136.400,243.474 136.498 C 219.453 136.552,179.869 136.643,155.508 136.700 M287.973 138.167 C 288.553 138.867,287.870 153.248,287.020 158.200 C 286.719 159.960,286.357 163.200,286.217 165.400 C 285.802 171.915,285.697 172.329,284.263 173.073 C 283.102 173.675,277.700 173.706,217.171 173.454 C 151.925 173.183,151.335 173.187,150.626 173.971 C 149.849 174.830,149.906 175.941,151.453 190.000 C 151.780 192.970,152.276 198.420,152.556 202.112 C 152.835 205.803,153.237 208.997,153.448 209.208 C 153.690 209.450,177.518 209.631,217.696 209.696 C 268.128 209.778,281.665 209.905,282.060 210.300 C 282.460 210.700,282.416 211.821,281.844 215.900 C 281.451 218.705,280.975 224.180,280.788 228.066 C 280.601 231.953,280.258 236.183,280.026 237.466 C 279.794 238.750,279.339 243.310,279.015 247.600 C 278.691 251.890,278.241 256.750,278.015 258.400 C 277.789 260.050,277.428 264.550,277.212 268.400 C 276.996 272.250,276.641 276.337,276.424 277.482 C 276.206 278.628,275.833 282.408,275.596 285.882 C 275.358 289.357,274.906 294.090,274.590 296.400 C 274.275 298.710,273.837 303.930,273.619 308.000 C 273.051 318.563,272.950 318.756,267.329 320.011 C 265.608 320.395,263.660 320.903,263.000 321.139 C 260.011 322.207,257.597 322.904,255.085 323.425 C 253.592 323.735,252.017 324.177,251.586 324.407 C 251.155 324.638,249.771 325.017,248.509 325.251 C 247.248 325.484,245.755 325.913,245.191 326.205 C 244.627 326.496,243.011 326.944,241.600 327.200 C 240.189 327.456,238.540 327.921,237.937 328.233 C 237.333 328.545,236.472 328.800,236.021 328.800 C 235.571 328.800,234.167 329.141,232.902 329.557 C 230.499 330.348,227.167 331.236,222.858 332.234 C 221.460 332.558,219.840 333.064,219.258 333.359 C 218.676 333.655,217.302 334.027,216.205 334.187 C 215.108 334.347,213.758 334.709,213.205 334.993 C 212.652 335.277,211.120 335.729,209.800 335.999 C 208.480 336.269,207.043 336.678,206.606 336.909 C 203.627 338.484,195.828 338.385,192.686 336.732 C 191.942 336.341,188.336 335.303,183.200 334.000 C 179.692 333.110,175.107 331.820,173.400 331.241 C 172.740 331.018,171.030 330.550,169.600 330.202 C 163.733 328.775,161.359 328.121,160.600 327.724 C 160.160 327.494,159.080 327.189,158.200 327.047 C 156.401 326.757,152.010 325.477,149.000 324.365 C 147.900 323.958,146.010 323.453,144.800 323.242 C 143.590 323.031,141.700 322.568,140.600 322.214 C 136.101 320.765,133.282 319.980,131.154 319.584 C 127.632 318.928,127.131 318.150,126.717 312.699 C 126.529 310.225,126.029 305.050,125.605 301.200 C 125.181 297.350,124.726 292.220,124.594 289.800 C 124.461 287.380,124.094 283.086,123.776 280.258 C 123.459 277.429,123.082 272.530,122.938 269.371 L 122.677 263.627 123.809 263.196 C 124.568 262.908,130.173 262.805,140.810 262.883 C 158.355 263.012,158.000 262.958,158.000 265.532 C 158.000 266.320,158.355 270.033,158.788 273.783 C 159.222 277.532,159.689 282.704,159.826 285.275 C 160.125 290.863,160.259 291.088,163.830 292.012 C 165.353 292.406,167.950 293.115,169.600 293.587 C 171.250 294.059,173.500 294.635,174.600 294.867 C 175.700 295.099,177.385 295.561,178.344 295.894 C 180.408 296.611,184.561 297.739,189.000 298.790 C 190.760 299.206,193.905 299.998,195.990 300.550 C 200.154 301.653,200.170 301.651,207.200 299.594 C 209.650 298.876,212.065 298.264,217.200 297.056 C 218.410 296.771,219.803 296.322,220.295 296.058 C 220.787 295.793,222.497 295.329,224.095 295.025 C 225.693 294.722,227.810 294.207,228.800 293.881 C 229.790 293.555,232.040 292.886,233.800 292.395 C 240.177 290.615,239.507 291.779,240.242 281.200 C 240.555 276.690,240.976 272.100,241.176 271.000 C 241.376 269.900,241.660 266.210,241.806 262.800 C 241.952 259.390,242.325 254.937,242.635 252.904 C 243.537 247.000,243.438 245.716,242.058 245.413 C 241.430 245.275,214.045 245.095,181.201 245.013 C 132.076 244.890,121.428 244.769,121.154 244.332 C 120.614 243.468,120.061 240.067,119.800 236.000 C 119.666 233.910,119.128 227.970,118.604 222.800 C 118.080 217.630,117.534 211.330,117.390 208.800 C 117.247 206.270,116.968 202.850,116.770 201.200 C 116.573 199.550,116.137 194.975,115.803 191.033 C 115.468 187.091,115.021 182.771,114.809 181.433 C 114.597 180.095,114.238 175.850,114.010 172.000 C 113.782 168.150,113.337 162.930,113.020 160.400 C 112.703 157.870,112.338 154.180,112.208 152.200 C 112.078 150.220,111.774 146.773,111.532 144.540 C 111.010 139.714,111.209 138.609,112.699 138.065 C 114.627 137.361,287.387 137.461,287.973 138.167 " stroke="none" fill="#eb9a80" fill-rule="evenodd"></path><path id="path4" d="M134.669 137.900 C 146.367 137.959,165.627 137.959,177.469 137.900 C 189.311 137.841,179.740 137.793,156.200 137.793 C 132.660 137.793,122.971 137.841,134.669 137.900 M111.469 142.400 C 112.069 150.768,112.346 152.787,112.156 147.400 C 112.055 144.540,111.804 141.480,111.599 140.600 C 111.320 139.404,111.287 139.858,111.469 142.400 M287.709 149.600 C 287.709 150.590,287.787 150.995,287.882 150.500 C 287.978 150.005,287.978 149.195,287.882 148.700 C 287.787 148.205,287.709 148.610,287.709 149.600 M112.524 155.000 C 112.526 156.320,112.601 156.812,112.690 156.093 C 112.779 155.374,112.777 154.294,112.686 153.693 C 112.595 153.092,112.522 153.680,112.524 155.000 M113.079 160.400 C 113.682 166.721,113.960 168.351,113.761 164.400 C 113.656 162.310,113.403 159.970,113.200 159.200 C 112.920 158.138,112.891 158.428,113.079 160.400 M286.101 163.800 C 286.105 164.680,286.187 164.993,286.283 164.495 C 286.379 163.998,286.375 163.278,286.275 162.895 C 286.175 162.513,286.096 162.920,286.101 163.800 M114.230 173.800 C 114.325 176.660,114.594 180.170,114.828 181.600 C 115.062 183.030,115.411 185.910,115.603 188.000 C 115.937 191.628,115.944 191.565,115.764 186.600 C 115.660 183.740,115.386 180.230,115.157 178.800 C 114.927 177.370,114.586 174.490,114.398 172.400 C 114.071 168.756,114.064 168.813,114.230 173.800 M152.600 172.654 C 152.160 172.752,151.426 172.910,150.969 173.006 C 149.665 173.280,149.223 174.725,149.677 177.228 C 150.226 180.259,150.518 180.294,150.178 177.287 C 149.656 172.670,141.433 173.157,216.971 173.326 C 276.313 173.459,278.653 173.442,241.400 173.148 C 163.815 172.536,153.399 172.478,152.600 172.654 M150.509 182.800 C 150.509 183.790,150.587 184.195,150.682 183.700 C 150.778 183.205,150.778 182.395,150.682 181.900 C 150.587 181.405,150.509 181.810,150.509 182.800 M151.021 191.901 C 151.126 195.037,151.479 198.874,151.806 200.428 C 152.133 201.981,152.400 204.555,152.400 206.146 C 152.400 210.362,150.119 210.013,176.980 209.903 L 200.600 209.807 177.217 209.700 C 163.017 209.635,153.683 209.443,153.451 209.211 C 153.240 209.000,152.826 205.717,152.531 201.914 C 152.236 198.111,151.732 193.020,151.412 190.600 L 150.830 186.200 151.021 191.901 M116.914 201.400 C 116.917 202.500,116.995 202.903,117.087 202.295 C 117.179 201.686,117.177 200.786,117.082 200.295 C 116.987 199.803,116.911 200.300,116.914 201.400 M117.328 206.000 C 117.328 207.430,117.401 208.015,117.489 207.300 C 117.578 206.585,117.578 205.415,117.489 204.700 C 117.401 203.985,117.328 204.570,117.328 206.000 M117.734 212.400 C 117.734 214.050,117.805 214.725,117.891 213.900 C 117.978 213.075,117.978 211.725,117.891 210.900 C 117.805 210.075,117.734 210.750,117.734 212.400 M258.100 209.891 C 258.925 209.978,260.275 209.978,261.100 209.891 C 261.925 209.805,261.250 209.734,259.600 209.734 C 257.950 209.734,257.275 209.805,258.100 209.891 M270.711 209.893 C 271.651 209.978,273.091 209.977,273.911 209.891 C 274.730 209.805,273.960 209.736,272.200 209.737 C 270.440 209.739,269.770 209.809,270.711 209.893 M282.093 212.400 C 282.093 213.170,282.175 213.485,282.276 213.100 C 282.376 212.715,282.376 212.085,282.276 211.700 C 282.175 211.315,282.093 211.630,282.093 212.400 M118.051 217.000 C 118.051 217.660,118.380 220.990,118.781 224.400 C 119.387 229.549,119.518 230.139,119.555 227.884 C 119.607 224.725,118.906 217.922,118.399 216.665 C 118.086 215.889,118.051 215.923,118.051 217.000 M280.514 230.600 C 280.517 231.700,280.595 232.103,280.687 231.495 C 280.779 230.886,280.777 229.986,280.682 229.495 C 280.587 229.003,280.511 229.500,280.514 230.600 M279.669 236.148 C 279.279 238.264,279.036 243.861,279.415 242.000 C 279.807 240.073,280.488 233.955,280.328 233.795 C 280.223 233.690,279.927 234.749,279.669 236.148 M120.095 238.800 C 120.095 239.790,120.232 241.140,120.400 241.800 C 120.673 242.873,120.705 242.809,120.705 241.200 C 120.705 240.210,120.568 238.860,120.400 238.200 C 120.127 237.127,120.095 237.191,120.095 238.800 M278.924 245.400 C 278.926 246.720,279.001 247.212,279.090 246.493 C 279.179 245.774,279.177 244.694,279.086 244.093 C 278.995 243.492,278.922 244.080,278.924 245.400 M123.700 245.087 C 124.305 245.178,125.295 245.178,125.900 245.087 C 126.505 244.995,126.010 244.920,124.800 244.920 C 123.590 244.920,123.095 244.995,123.700 245.087 M130.700 245.089 C 131.415 245.178,132.585 245.178,133.300 245.089 C 134.015 245.001,133.430 244.928,132.000 244.928 C 130.570 244.928,129.985 245.001,130.700 245.089 M140.505 245.087 C 141.114 245.179,142.014 245.177,142.505 245.082 C 142.997 244.987,142.500 244.911,141.400 244.914 C 140.300 244.917,139.897 244.995,140.505 245.087 M198.900 245.076 C 199.285 245.176,199.915 245.176,200.300 245.076 C 200.685 244.975,200.370 244.893,199.600 244.893 C 198.830 244.893,198.515 244.975,198.900 245.076 M241.800 245.200 C 241.936 245.420,242.333 245.600,242.683 245.600 C 243.316 245.600,243.258 249.654,242.571 253.400 C 242.416 254.249,242.462 254.425,242.731 254.000 C 242.940 253.670,243.231 252.230,243.377 250.800 C 243.523 249.370,243.732 247.727,243.842 247.149 C 243.967 246.490,243.800 245.857,243.392 245.449 C 242.690 244.747,241.395 244.544,241.800 245.200 M277.309 263.200 C 277.309 264.190,277.387 264.595,277.482 264.100 C 277.578 263.605,277.578 262.795,277.482 262.300 C 277.387 261.805,277.309 262.210,277.309 263.200 M132.100 263.100 C 136.445 263.164,143.555 263.164,147.900 263.100 C 152.245 263.035,148.690 262.982,140.000 262.982 C 131.310 262.982,127.755 263.035,132.100 263.100 M157.667 264.925 C 157.538 267.085,158.466 277.675,158.999 280.128 C 159.815 283.880,159.738 281.106,158.814 273.485 C 158.382 269.918,157.963 266.280,157.882 265.400 C 157.784 264.343,157.712 264.182,157.667 264.925 M122.928 268.800 C 122.928 270.230,123.001 270.815,123.089 270.100 C 123.178 269.385,123.178 268.215,123.089 267.500 C 123.001 266.785,122.928 267.370,122.928 268.800 M276.920 270.800 C 276.920 272.010,276.995 272.505,277.087 271.900 C 277.178 271.295,277.178 270.305,277.087 269.700 C 276.995 269.095,276.920 269.590,276.920 270.800 M123.376 276.200 C 123.480 277.080,123.755 279.780,123.986 282.200 C 124.218 284.620,124.478 287.320,124.564 288.200 C 124.651 289.080,124.634 287.280,124.527 284.200 C 124.419 281.120,124.074 277.700,123.759 276.600 C 123.218 274.711,123.197 274.689,123.376 276.200 M276.234 276.271 C 275.702 278.749,275.227 283.541,275.269 286.000 C 275.304 288.070,275.381 287.711,275.647 284.240 C 275.831 281.842,276.165 278.886,276.390 277.672 C 276.806 275.419,276.673 274.223,276.234 276.271 M159.670 288.077 C 159.595 290.954,160.283 292.021,162.189 291.984 C 162.791 291.973,162.668 291.825,161.714 291.410 C 160.357 290.820,160.104 290.241,159.875 287.200 C 159.775 285.863,159.722 286.089,159.670 288.077 M239.200 290.272 C 239.200 290.495,238.795 290.873,238.300 291.112 C 237.805 291.351,237.591 291.558,237.824 291.573 C 238.496 291.616,239.830 290.496,239.499 290.166 C 239.335 290.001,239.200 290.049,239.200 290.272 M125.045 295.000 C 125.293 299.543,126.304 306.617,126.331 304.000 C 126.351 302.091,125.833 297.251,125.218 293.600 C 124.897 291.692,124.874 291.877,125.045 295.000 M163.600 292.163 C 163.600 292.489,168.963 293.999,169.967 293.956 C 170.671 293.926,170.364 293.745,169.000 293.389 C 167.900 293.102,166.371 292.672,165.603 292.433 C 164.111 291.971,163.600 291.902,163.600 292.163 M233.200 292.600 C 232.430 292.897,231.365 293.153,230.833 293.170 C 230.302 293.186,229.975 293.308,230.106 293.440 C 230.481 293.814,233.444 293.204,234.263 292.584 C 235.161 291.904,235.002 291.906,233.200 292.600 M171.893 294.569 C 172.385 294.936,173.704 295.345,174.826 295.478 C 175.947 295.610,177.518 296.052,178.317 296.460 C 179.116 296.867,180.316 297.196,180.985 297.190 C 182.417 297.179,177.906 295.571,174.600 294.915 C 173.500 294.697,172.240 294.380,171.800 294.210 C 171.107 293.943,171.119 293.991,171.893 294.569 M188.000 298.867 C 188.990 299.093,190.610 299.601,191.600 299.996 C 192.590 300.392,194.390 300.816,195.600 300.939 L 197.800 301.163 195.800 300.639 C 194.700 300.351,192.990 299.842,192.000 299.508 C 191.010 299.174,189.300 298.800,188.200 298.679 L 186.200 298.457 188.000 298.867 M198.935 301.688 C 199.571 301.913,200.220 301.938,200.412 301.745 C 200.602 301.552,200.101 301.375,199.277 301.343 C 197.819 301.287,197.815 301.291,198.935 301.688 M273.709 303.200 C 273.709 304.190,273.787 304.595,273.882 304.100 C 273.978 303.605,273.978 302.795,273.882 302.300 C 273.787 301.805,273.709 302.210,273.709 303.200 M126.540 309.200 C 126.540 311.070,126.609 311.835,126.693 310.900 C 126.777 309.965,126.777 308.435,126.693 307.500 C 126.609 306.565,126.540 307.330,126.540 309.200 M273.293 312.000 C 273.293 312.770,273.375 313.085,273.476 312.700 C 273.576 312.315,273.576 311.685,273.476 311.300 C 273.375 310.915,273.293 311.230,273.293 312.000 M126.996 316.400 C 127.397 317.800,128.784 319.104,130.200 319.412 C 131.390 319.670,131.388 319.666,130.008 318.936 C 129.242 318.531,128.187 317.570,127.663 316.800 C 126.883 315.654,126.762 315.582,126.996 316.400 M141.000 322.250 C 141.880 322.588,143.050 322.934,143.600 323.018 C 144.261 323.119,144.329 323.092,143.800 322.938 C 143.360 322.809,142.645 322.455,142.211 322.152 C 141.777 321.848,140.967 321.608,140.411 321.618 C 139.570 321.632,139.669 321.738,141.000 322.250 M258.211 322.225 C 256.782 322.970,256.283 323.453,257.400 323.010 C 257.840 322.835,258.830 322.454,259.600 322.164 C 260.505 321.822,260.717 321.630,260.200 321.620 C 259.760 321.612,258.865 321.884,258.211 322.225 M148.400 324.200 C 148.950 324.514,149.580 324.772,149.800 324.772 C 150.020 324.772,149.750 324.514,149.200 324.200 C 148.650 323.886,148.020 323.628,147.800 323.628 C 147.580 323.628,147.850 323.886,148.400 324.200 M152.321 325.391 C 153.488 325.723,154.781 326.176,155.195 326.397 C 155.609 326.619,156.364 326.779,156.874 326.754 C 157.674 326.714,157.693 326.680,157.017 326.508 C 156.586 326.399,155.866 326.070,155.417 325.779 C 154.968 325.487,153.610 325.144,152.400 325.017 L 150.200 324.787 152.321 325.391 M159.035 327.177 C 159.714 327.339,160.511 327.622,160.807 327.804 C 161.314 328.118,163.650 328.755,169.600 330.202 C 171.030 330.550,172.740 331.022,173.400 331.252 C 175.672 332.041,176.196 332.057,174.587 331.288 C 173.700 330.864,172.148 330.393,171.139 330.242 C 170.129 330.090,168.612 329.614,167.767 329.183 C 166.922 328.752,165.594 328.396,164.815 328.391 C 164.037 328.386,162.615 328.026,161.656 327.591 C 160.697 327.156,159.437 326.818,158.856 326.841 C 157.848 326.880,157.856 326.895,159.035 327.177 M232.400 329.400 C 231.122 330.130,231.396 330.134,233.400 329.412 C 234.280 329.095,234.640 328.834,234.200 328.832 C 233.760 328.830,232.950 329.086,232.400 329.400 M178.800 332.800 C 181.579 333.777,182.288 333.766,180.200 332.778 C 179.320 332.362,178.150 332.022,177.600 332.024 C 176.943 332.025,177.354 332.291,178.800 332.800 M190.200 335.865 C 190.640 335.960,191.677 336.327,192.504 336.681 C 193.331 337.035,194.124 337.209,194.265 337.068 C 194.653 336.680,191.785 335.593,190.513 335.646 C 189.718 335.680,189.629 335.742,190.200 335.865 " stroke="none" fill="#eca798" fill-rule="evenodd"></path><path id="path5" d="M155.720 137.996 C 124.203 138.145,112.316 138.323,111.986 138.654 C 111.658 138.982,111.638 139.984,111.912 142.254 L 112.293 145.400 112.347 142.355 L 112.400 139.310 114.582 139.054 C 119.081 138.525,286.469 138.760,287.115 139.296 C 287.794 139.859,287.576 149.776,286.829 152.328 C 286.615 153.058,286.245 156.208,286.007 159.328 C 285.453 166.602,285.022 169.628,284.338 171.054 L 283.789 172.200 240.915 172.200 C 212.332 172.200,198.173 172.333,198.440 172.600 C 199.069 173.230,283.097 173.540,284.447 172.917 C 285.706 172.337,285.999 171.157,286.003 166.650 C 286.004 164.863,286.294 161.690,286.645 159.600 C 287.353 155.399,287.423 154.670,288.027 145.269 C 288.346 140.309,288.333 138.602,287.974 138.169 C 287.470 137.561,256.849 137.521,155.720 137.996 M112.685 152.400 C 112.782 155.150,113.036 158.220,113.248 159.223 C 113.460 160.226,113.793 162.836,113.987 165.023 C 114.294 168.475,114.315 168.156,114.143 162.600 C 114.035 159.080,113.692 155.120,113.381 153.800 C 113.071 152.480,112.747 150.500,112.662 149.400 C 112.577 148.300,112.587 149.650,112.685 152.400 M114.448 173.080 C 114.421 173.784,114.583 175.224,114.806 176.280 C 115.029 177.336,115.379 179.820,115.582 181.800 L 115.953 185.400 115.748 181.200 C 115.536 176.870,114.539 170.640,114.448 173.080 M149.488 173.500 C 148.806 175.210,149.137 183.560,149.925 184.510 C 150.163 184.796,150.433 186.104,150.524 187.415 C 150.616 188.727,150.614 187.675,150.520 185.079 C 150.426 182.482,150.103 179.179,149.801 177.739 C 148.850 173.192,149.311 172.819,156.400 172.398 L 161.000 172.125 155.543 172.062 L 150.087 172.000 149.488 173.500 M164.505 172.287 C 165.114 172.379,166.014 172.377,166.505 172.282 C 166.997 172.187,166.500 172.111,165.400 172.114 C 164.300 172.117,163.897 172.195,164.505 172.287 M116.216 192.000 C 116.282 194.750,116.533 197.810,116.775 198.800 C 117.017 199.790,117.377 202.670,117.575 205.200 C 117.897 209.317,117.914 209.044,117.737 202.600 C 117.627 198.585,117.292 194.338,116.979 193.000 C 116.671 191.680,116.346 189.790,116.258 188.800 C 116.169 187.810,116.150 189.250,116.216 192.000 M150.901 195.000 C 150.905 195.880,150.987 196.193,151.083 195.695 C 151.179 195.198,151.175 194.478,151.075 194.095 C 150.975 193.713,150.896 194.120,150.901 195.000 M152.114 204.200 C 152.117 205.300,152.195 205.703,152.287 205.095 C 152.379 204.486,152.377 203.586,152.282 203.095 C 152.187 202.603,152.111 203.100,152.114 204.200 M177.000 210.001 C 160.778 210.146,169.970 210.226,206.400 210.257 C 235.550 210.282,258.680 210.155,257.800 209.974 C 256.122 209.630,217.070 209.643,177.000 210.001 M262.000 210.000 C 261.273 210.470,266.354 210.470,268.200 210.000 C 269.051 209.784,268.410 209.683,266.000 209.653 C 264.130 209.631,262.330 209.787,262.000 210.000 M274.000 209.981 C 272.973 210.211,273.687 210.309,276.676 210.347 C 278.918 210.376,280.846 210.551,280.960 210.735 C 281.300 211.286,280.431 224.865,279.546 232.800 C 279.093 236.870,278.799 240.920,278.894 241.800 C 279.027 243.042,279.081 242.846,279.133 240.926 C 279.170 239.566,279.459 237.221,279.776 235.716 C 280.092 234.210,280.468 230.644,280.611 227.789 C 280.753 224.935,281.115 220.980,281.415 219.000 C 282.055 214.771,282.255 210.522,281.834 210.101 C 281.420 209.687,275.702 209.600,274.000 209.981 M118.184 213.800 C 118.277 215.340,118.538 217.320,118.764 218.200 C 119.117 219.573,119.150 219.346,118.994 216.600 C 118.895 214.840,118.634 212.860,118.415 212.200 C 118.096 211.241,118.050 211.562,118.184 213.800 M119.314 221.800 C 119.317 222.900,119.395 223.303,119.487 222.695 C 119.579 222.086,119.577 221.186,119.482 220.695 C 119.387 220.203,119.311 220.700,119.314 221.800 M119.652 230.000 C 119.632 231.650,119.796 234.170,120.015 235.600 C 120.235 237.030,120.573 239.523,120.768 241.140 C 120.962 242.758,121.274 244.220,121.460 244.389 C 121.882 244.772,241.845 245.312,241.462 244.929 C 241.184 244.651,233.169 244.581,162.600 244.244 C 141.700 244.144,123.948 243.960,123.151 243.834 C 121.442 243.566,121.215 242.900,121.175 238.050 C 121.161 236.373,120.821 233.200,120.419 231.000 L 119.688 227.000 119.652 230.000 M278.476 246.000 C 278.424 247.430,278.209 249.320,278.000 250.200 C 277.790 251.080,277.420 255.130,277.178 259.200 C 276.936 263.270,276.392 269.390,275.968 272.800 C 275.545 276.210,275.222 279.810,275.250 280.800 C 275.297 282.434,275.332 282.362,275.636 280.013 C 275.820 278.591,276.156 276.611,276.384 275.613 C 276.611 274.616,276.971 270.740,277.185 267.000 C 277.399 263.260,277.855 258.430,278.200 256.266 C 278.584 253.853,278.776 250.605,278.698 247.866 C 278.622 245.204,278.533 244.450,278.476 246.000 M243.473 250.169 C 243.298 251.912,242.971 253.681,242.747 254.099 C 242.523 254.517,242.188 257.951,242.002 261.730 C 241.815 265.508,241.394 270.220,241.065 272.200 C 240.736 274.180,240.353 278.590,240.215 282.000 C 239.880 290.293,239.783 290.758,238.248 291.426 C 237.177 291.891,237.128 291.971,237.900 291.984 C 239.040 292.004,240.392 290.674,240.425 289.500 C 240.464 288.113,241.091 280.864,241.766 274.000 C 242.101 270.590,242.381 266.596,242.388 265.125 C 242.394 263.653,242.771 259.549,243.224 256.004 C 243.677 252.460,243.990 248.983,243.920 248.280 C 243.848 247.555,243.654 248.373,243.473 250.169 M123.079 263.738 C 122.767 264.552,123.440 276.218,123.836 276.852 C 124.024 277.154,124.290 278.840,124.427 280.600 L 124.676 283.800 124.731 280.400 C 124.761 278.530,124.517 275.110,124.188 272.800 C 123.519 268.087,123.351 264.515,123.780 264.086 C 124.574 263.292,155.892 263.779,156.799 264.599 L 157.682 265.398 157.541 264.399 L 157.400 263.400 140.344 263.296 C 126.229 263.209,123.253 263.286,123.079 263.738 M157.728 270.800 C 157.728 272.230,157.801 272.815,157.889 272.100 C 157.978 271.385,157.978 270.215,157.889 269.500 C 157.801 268.785,157.728 269.370,157.728 270.800 M158.070 275.600 C 158.013 276.858,158.173 278.352,159.190 286.000 L 159.482 288.200 159.541 285.683 C 159.574 284.299,159.338 281.869,159.018 280.283 C 158.697 278.697,158.367 276.680,158.285 275.800 C 158.137 274.231,158.133 274.228,158.070 275.600 M274.886 285.500 C 274.838 286.655,274.535 289.175,274.212 291.100 C 273.889 293.025,273.442 298.380,273.219 303.000 C 272.530 317.265,272.015 318.417,265.813 319.564 C 264.607 319.787,263.084 320.246,262.430 320.585 C 261.775 320.923,260.826 321.208,260.320 321.218 C 259.814 321.227,258.680 321.513,257.800 321.854 C 256.920 322.194,255.120 322.699,253.800 322.976 C 251.531 323.452,249.330 324.091,245.200 325.470 C 244.210 325.801,242.230 326.314,240.800 326.611 C 239.370 326.908,237.531 327.432,236.713 327.775 C 235.895 328.119,234.815 328.408,234.313 328.418 C 233.811 328.427,232.680 328.709,231.800 329.044 C 230.920 329.379,228.884 329.898,227.276 330.198 C 225.668 330.497,224.138 330.914,223.876 331.126 C 223.614 331.337,222.590 331.640,221.600 331.800 C 220.610 331.959,219.170 332.360,218.400 332.691 C 217.630 333.021,215.920 333.525,214.600 333.810 C 213.280 334.095,211.480 334.606,210.600 334.946 C 209.720 335.287,208.588 335.573,208.084 335.582 C 207.580 335.592,206.410 335.993,205.484 336.474 C 204.139 337.172,203.102 337.350,200.334 337.360 C 196.893 337.371,196.879 337.375,198.469 337.913 C 199.672 338.319,200.375 338.347,201.295 338.027 C 201.968 337.792,202.952 337.600,203.482 337.600 C 204.011 337.600,205.199 337.263,206.122 336.851 C 207.045 336.440,208.790 335.979,210.000 335.828 C 211.210 335.676,212.613 335.283,213.118 334.955 C 213.623 334.627,214.973 334.252,216.118 334.122 C 217.263 333.993,218.830 333.578,219.600 333.200 C 220.370 332.823,221.816 332.407,222.812 332.276 C 223.809 332.146,225.429 331.674,226.412 331.228 C 227.396 330.782,228.704 330.414,229.320 330.409 C 229.936 330.404,231.016 330.101,231.720 329.736 C 232.424 329.370,234.170 328.849,235.600 328.578 C 237.030 328.306,238.920 327.803,239.800 327.459 C 240.680 327.116,241.975 326.827,242.677 326.818 C 243.380 326.808,244.550 326.460,245.277 326.045 C 246.005 325.630,247.537 325.175,248.682 325.034 C 249.827 324.893,251.537 324.426,252.482 323.997 C 253.427 323.569,254.745 323.214,255.411 323.209 C 256.077 323.204,257.022 322.920,257.510 322.578 C 257.999 322.236,259.503 321.778,260.853 321.561 C 262.202 321.343,263.807 320.907,264.419 320.590 C 265.031 320.274,266.549 319.895,267.793 319.749 C 272.707 319.172,272.999 318.549,273.572 307.400 C 273.798 303.000,274.263 297.845,274.605 295.945 C 275.003 293.731,275.181 290.857,275.099 287.945 C 275.029 285.445,274.933 284.345,274.886 285.500 M124.940 288.400 C 124.940 290.270,125.009 291.035,125.093 290.100 C 125.177 289.165,125.177 287.635,125.093 286.700 C 125.009 285.765,124.940 286.530,124.940 288.400 M160.344 291.568 C 160.864 292.026,161.545 292.400,161.858 292.400 C 162.172 292.400,162.859 292.682,163.386 293.027 C 163.918 293.376,164.933 293.598,165.672 293.527 C 167.113 293.389,163.877 292.000,162.114 292.000 C 161.709 292.000,160.933 291.716,160.389 291.368 L 159.400 290.736 160.344 291.568 M234.161 292.629 C 233.700 292.952,232.170 293.376,230.761 293.570 C 229.353 293.765,227.480 294.204,226.600 294.545 C 225.720 294.886,224.453 295.173,223.785 295.182 C 223.116 295.192,221.856 295.569,220.985 296.021 C 220.113 296.472,218.500 296.950,217.400 297.083 C 216.300 297.216,214.620 297.657,213.667 298.063 C 212.714 298.468,211.364 298.804,210.667 298.809 C 209.970 298.814,208.661 299.153,207.758 299.563 C 206.855 299.973,205.145 300.437,203.958 300.593 C 202.771 300.749,201.385 301.140,200.878 301.462 C 200.176 301.907,199.650 301.953,198.678 301.652 C 197.975 301.434,196.590 301.149,195.600 301.019 L 193.800 300.781 195.400 301.445 C 197.689 302.395,200.856 302.597,202.253 301.882 C 202.884 301.559,204.210 301.164,205.200 301.005 C 206.190 300.845,207.810 300.388,208.800 299.989 C 209.790 299.590,211.573 299.150,212.763 299.010 C 213.952 298.870,215.392 298.517,215.963 298.225 C 216.533 297.933,217.810 297.562,218.800 297.399 C 219.790 297.237,221.268 296.766,222.084 296.352 C 222.900 295.938,224.250 295.592,225.084 295.582 C 225.918 295.573,227.320 295.289,228.200 294.952 C 229.080 294.615,230.790 294.105,232.000 293.818 C 234.990 293.109,237.414 292.029,236.000 292.037 C 235.450 292.040,234.623 292.306,234.161 292.629 M125.447 294.400 C 125.577 295.390,125.923 298.450,126.217 301.200 L 126.751 306.200 126.557 301.126 C 126.450 298.314,126.107 295.282,125.788 294.326 L 125.212 292.600 125.447 294.400 M170.000 294.385 C 170.000 294.847,173.064 295.727,173.730 295.455 C 173.988 295.349,173.840 295.243,173.400 295.219 C 172.960 295.194,172.251 294.910,171.824 294.587 C 170.939 293.918,170.000 293.814,170.000 294.385 M177.144 296.409 C 179.418 297.441,180.228 297.434,178.200 296.400 C 177.337 295.960,176.354 295.604,176.015 295.609 C 175.677 295.614,176.185 295.974,177.144 296.409 M181.000 297.448 C 181.440 297.562,182.370 297.914,183.067 298.230 C 183.764 298.547,185.204 298.894,186.267 299.002 C 188.142 299.191,188.158 299.184,186.800 298.762 C 186.030 298.523,185.220 298.184,185.000 298.009 C 184.780 297.833,183.610 297.589,182.400 297.466 C 181.190 297.343,180.560 297.335,181.000 297.448 M190.744 300.009 C 191.703 300.444,192.693 300.796,192.944 300.791 C 193.195 300.786,192.615 300.426,191.656 299.991 C 190.697 299.556,189.707 299.204,189.456 299.209 C 189.205 299.214,189.785 299.574,190.744 300.009 M126.837 311.800 C 126.789 316.844,128.198 318.982,131.858 319.422 C 132.706 319.524,133.130 319.505,132.800 319.379 C 128.688 317.815,128.457 317.607,128.194 315.242 C 128.058 314.009,127.704 311.920,127.408 310.600 L 126.871 308.200 126.837 311.800 M134.583 319.892 C 135.014 320.001,135.734 320.323,136.183 320.607 C 136.632 320.891,137.990 321.248,139.200 321.400 C 140.410 321.552,141.789 321.922,142.264 322.223 C 142.739 322.525,144.209 322.945,145.530 323.158 C 146.852 323.371,148.479 323.827,149.147 324.172 C 149.814 324.518,150.679 324.800,151.069 324.800 C 152.534 324.800,149.872 323.451,147.422 322.952 C 146.090 322.680,144.280 322.183,143.400 321.846 C 142.520 321.510,141.260 321.221,140.600 321.204 C 139.940 321.187,138.680 320.825,137.800 320.400 C 136.920 319.975,135.660 319.642,135.000 319.660 C 134.185 319.682,134.051 319.757,134.583 319.892 M155.424 325.787 C 155.851 326.110,156.380 326.375,156.600 326.375 C 156.820 326.375,156.651 326.110,156.224 325.787 C 155.796 325.464,155.267 325.200,155.047 325.200 C 154.827 325.200,154.996 325.464,155.424 325.787 M158.100 326.676 C 158.485 326.776,159.115 326.776,159.500 326.676 C 159.885 326.575,159.570 326.493,158.800 326.493 C 158.030 326.493,157.715 326.575,158.100 326.676 M161.800 327.622 C 162.680 328.038,163.760 328.380,164.200 328.381 C 164.680 328.382,164.302 328.066,163.256 327.591 C 162.297 327.156,161.217 326.815,160.856 326.832 C 160.495 326.850,160.920 327.205,161.800 327.622 M167.773 329.153 C 169.365 329.998,170.045 330.067,169.107 329.289 C 168.826 329.055,168.057 328.742,167.398 328.591 C 166.325 328.347,166.364 328.406,167.773 329.153 M172.000 330.362 C 172.770 330.545,174.069 330.989,174.887 331.348 C 175.705 331.706,176.875 332.004,177.487 332.009 C 178.099 332.014,179.364 332.364,180.297 332.788 C 181.231 333.212,182.941 333.734,184.097 333.949 C 185.254 334.164,186.740 334.622,187.400 334.967 C 188.060 335.313,189.230 335.572,190.000 335.543 C 191.057 335.504,191.162 335.446,190.429 335.308 C 189.895 335.208,189.063 334.867,188.580 334.550 C 188.097 334.233,186.733 333.869,185.551 333.740 C 184.368 333.610,183.000 333.255,182.511 332.951 C 182.023 332.646,180.673 332.204,179.511 331.968 C 178.350 331.732,176.858 331.295,176.195 330.996 C 175.533 330.697,174.003 330.357,172.795 330.240 C 171.101 330.076,170.919 330.104,172.000 330.362 M193.400 336.400 C 194.263 336.840,195.246 337.185,195.585 337.168 C 196.319 337.129,193.259 335.626,192.415 335.610 C 192.094 335.605,192.537 335.960,193.400 336.400 " stroke="none" fill="#fcbc94" fill-rule="evenodd"></path></g></svg>