<svg id="svg" version="1.1" xmlns="http://www.w3.org/2000/svg" xmlns:xlink="http://www.w3.org/1999/xlink" width="400" height="400" viewBox="0, 0, 400,400"><g id="svgg"><path id="path0" d="M175.104 35.900 L 175.000 52.200 164.000 52.400 L 153.000 52.600 152.892 60.500 L 152.783 68.400 169.392 68.400 C 180.197 68.400,186.000 68.540,186.000 68.800 C 186.000 69.020,186.270 69.200,186.600 69.200 C 186.930 69.200,187.200 69.020,187.200 68.800 C 187.200 68.580,187.560 68.400,188.000 68.400 C 188.440 68.400,188.800 68.580,188.800 68.800 C 188.800 69.406,189.497 69.280,190.395 68.511 C 191.185 67.835,191.200 67.373,191.200 43.711 L 191.200 19.600 183.204 19.600 L 175.209 19.600 175.104 35.900 M208.529 20.802 C 207.679 21.144,207.658 21.335,207.618 28.906 L 207.577 36.660 214.257 43.230 C 221.755 50.605,223.200 52.085,223.200 52.389 C 223.201 52.505,219.961 52.540,216.000 52.468 C 211.026 52.376,208.800 52.469,208.800 52.768 C 208.800 53.005,208.530 53.200,208.200 53.200 C 207.688 53.200,207.600 54.289,207.600 60.604 L 207.600 68.007 227.500 67.904 L 247.400 67.800 247.329 60.184 L 247.257 52.568 241.929 47.340 C 238.998 44.465,235.655 41.252,234.500 40.201 C 232.464 38.349,231.872 37.228,232.900 37.174 C 233.175 37.159,236.302 37.170,239.848 37.197 C 245.054 37.238,246.410 37.133,246.887 36.656 C 247.484 36.058,247.574 21.728,246.986 20.778 C 246.688 20.295,209.729 20.318,208.529 20.802 M167.500 69.082 C 167.995 69.178,168.805 69.178,169.300 69.082 C 169.795 68.987,169.390 68.909,168.400 68.909 C 167.410 68.909,167.005 68.987,167.500 69.082 " stroke="none" fill="#090909" fill-rule="evenodd"></path><path id="path1" d="M72.937 91.819 C 72.807 92.158,72.819 93.102,72.964 93.917 C 73.109 94.733,73.399 97.830,73.609 100.800 C 73.819 103.770,74.180 107.730,74.410 109.600 C 74.641 111.470,75.002 115.520,75.213 118.600 C 75.423 121.680,75.784 126.000,76.013 128.200 C 76.243 130.400,76.602 134.270,76.813 136.800 C 77.023 139.330,77.359 142.750,77.560 144.400 C 78.086 148.723,78.754 155.754,79.252 162.200 C 79.854 170.005,80.308 175.164,80.785 179.600 C 81.009 181.690,81.361 185.380,81.567 187.800 C 81.774 190.220,82.145 193.820,82.393 195.800 C 82.641 197.780,83.025 202.010,83.246 205.200 C 83.466 208.390,83.819 212.800,84.030 215.000 C 84.240 217.200,84.578 220.800,84.780 223.000 C 84.981 225.200,85.343 228.890,85.582 231.200 C 85.822 233.510,86.184 237.380,86.388 239.800 C 86.591 242.220,86.962 246.180,87.211 248.600 C 87.460 251.020,87.826 255.250,88.024 258.000 C 88.223 260.750,88.558 264.440,88.769 266.200 C 88.980 267.960,89.332 271.470,89.550 274.000 C 89.768 276.530,90.157 280.490,90.413 282.800 C 90.669 285.110,91.040 289.520,91.238 292.600 C 91.436 295.680,91.776 299.910,91.995 302.000 C 92.214 304.090,92.577 307.690,92.803 310.000 C 93.029 312.310,93.370 315.640,93.562 317.400 C 93.753 319.160,94.117 323.030,94.371 326.000 C 94.625 328.970,95.028 333.290,95.266 335.600 C 95.505 337.910,95.783 341.952,95.885 344.582 C 96.079 349.570,96.377 350.356,98.088 350.387 C 98.466 350.394,99.417 350.760,100.200 351.200 C 100.983 351.640,102.101 352.000,102.684 352.000 C 103.765 352.000,106.045 352.618,107.295 353.249 C 107.677 353.442,108.373 353.600,108.842 353.600 C 109.605 353.600,113.708 354.792,115.800 355.622 C 116.240 355.797,117.050 356.031,117.600 356.142 C 118.150 356.253,119.230 356.525,120.000 356.745 C 120.770 356.966,122.660 357.448,124.200 357.817 C 126.914 358.467,128.249 358.911,129.695 359.647 C 130.077 359.841,130.831 360.000,131.371 360.000 C 131.911 360.000,132.464 360.180,132.600 360.400 C 132.736 360.620,133.368 360.800,134.005 360.800 C 134.641 360.800,135.576 360.963,136.081 361.163 C 136.587 361.363,138.350 361.907,140.000 362.373 C 141.650 362.838,144.104 363.575,145.453 364.009 C 146.801 364.444,148.229 364.800,148.626 364.800 C 149.022 364.800,150.349 365.136,151.573 365.546 C 152.798 365.957,154.610 366.528,155.600 366.816 C 156.590 367.104,157.571 367.488,157.780 367.670 C 157.989 367.851,158.581 368.000,159.096 368.000 C 159.611 368.000,161.240 368.368,162.716 368.818 C 164.192 369.268,166.030 369.794,166.800 369.987 C 167.570 370.180,169.190 370.640,170.400 371.011 C 172.987 371.802,174.868 372.325,176.800 372.791 C 180.498 373.682,183.475 374.485,184.200 374.787 C 185.337 375.259,187.115 375.830,189.200 376.393 C 190.190 376.660,191.313 377.040,191.695 377.239 C 192.077 377.438,192.917 377.600,193.561 377.600 C 194.206 377.600,195.574 377.960,196.600 378.400 C 198.592 379.254,200.588 379.418,202.081 378.851 C 203.264 378.402,204.992 377.906,209.200 376.810 C 211.070 376.323,213.479 375.581,214.553 375.162 C 215.628 374.743,216.890 374.400,217.359 374.400 C 217.828 374.400,219.196 374.040,220.400 373.600 C 221.604 373.160,222.981 372.800,223.461 372.800 C 223.941 372.800,225.174 372.440,226.200 372.000 C 227.226 371.560,228.555 371.200,229.153 371.200 C 229.751 371.200,230.411 371.057,230.620 370.882 C 231.155 370.434,233.388 369.748,236.200 369.168 C 237.520 368.896,238.771 368.522,238.980 368.337 C 239.189 368.152,239.819 367.997,240.380 367.994 C 241.451 367.988,244.191 367.143,244.659 366.674 C 244.810 366.523,245.523 366.400,246.243 366.400 C 246.963 366.400,247.664 366.220,247.800 366.000 C 247.936 365.780,248.476 365.600,249.000 365.600 C 249.524 365.600,250.064 365.420,250.200 365.200 C 250.336 364.980,250.829 364.800,251.295 364.800 C 252.196 364.800,254.539 364.135,255.695 363.551 C 256.077 363.358,256.844 363.200,257.400 363.200 C 257.956 363.200,258.723 363.038,259.105 362.839 C 259.487 362.640,260.520 362.283,261.400 362.045 C 262.280 361.806,264.155 361.249,265.566 360.806 C 266.977 360.363,268.542 360.000,269.042 360.000 C 269.543 360.000,270.064 359.820,270.200 359.600 C 270.336 359.380,270.889 359.200,271.429 359.200 C 271.969 359.200,272.723 359.038,273.105 358.841 C 273.803 358.480,277.335 357.409,281.800 356.204 C 284.536 355.465,288.354 354.379,293.900 352.763 C 294.725 352.522,296.030 352.231,296.800 352.115 C 297.570 352.000,298.380 351.773,298.600 351.611 C 298.820 351.449,299.869 351.067,300.931 350.762 C 303.600 349.995,303.766 349.669,304.054 344.639 C 304.345 339.559,305.820 323.058,306.435 318.000 C 306.662 316.130,307.013 312.800,307.215 310.600 C 307.417 308.400,307.765 304.620,307.988 302.200 C 308.212 299.780,308.566 295.460,308.775 292.600 C 308.984 289.740,309.353 285.510,309.594 283.200 C 309.835 280.890,310.207 277.020,310.420 274.600 C 310.632 272.180,310.980 268.670,311.192 266.800 C 311.403 264.930,311.751 261.150,311.963 258.400 C 312.176 255.650,312.554 251.330,312.804 248.800 C 313.053 246.270,313.422 242.220,313.624 239.800 C 313.825 237.380,314.172 233.780,314.394 231.800 C 314.617 229.820,314.996 226.040,315.237 223.400 C 315.478 220.760,315.823 217.070,316.004 215.200 C 316.184 213.330,316.527 209.010,316.764 205.600 C 317.002 202.190,317.378 197.960,317.599 196.200 C 317.821 194.440,318.179 190.930,318.396 188.400 C 318.612 185.870,318.983 182.270,319.219 180.400 C 319.455 178.530,319.805 174.930,319.997 172.400 C 320.188 169.870,320.543 165.640,320.786 163.000 C 321.028 160.360,321.395 155.950,321.601 153.200 C 321.806 150.450,322.168 146.760,322.404 145.000 C 322.640 143.240,322.998 139.730,323.200 137.200 C 323.402 134.670,323.753 130.800,323.980 128.600 C 324.207 126.400,324.570 122.260,324.787 119.400 C 325.004 116.540,325.374 112.310,325.609 110.000 C 326.568 100.570,326.880 96.863,326.939 94.200 L 327.000 91.400 200.087 91.302 C 86.154 91.214,73.149 91.267,72.937 91.819 M303.563 112.364 C 304.016 112.655,304.068 113.449,303.831 116.462 C 303.233 124.078,302.828 128.704,302.420 132.600 C 302.189 134.800,301.637 141.100,301.192 146.600 C 300.747 152.100,300.294 157.140,300.186 157.800 C 300.078 158.460,299.712 161.970,299.374 165.600 C 299.036 169.230,298.588 174.000,298.378 176.200 C 298.169 178.400,297.820 182.360,297.602 185.000 C 297.385 187.640,297.040 191.690,296.835 194.000 C 296.630 196.310,296.266 200.450,296.026 203.200 C 295.786 205.950,295.404 209.910,295.177 212.000 C 294.949 214.090,294.495 218.770,294.166 222.400 C 293.838 226.030,293.313 231.700,293.000 235.000 C 292.687 238.300,292.161 243.970,291.831 247.600 C 291.502 251.230,291.047 256.000,290.820 258.200 C 290.292 263.330,289.306 274.417,288.987 278.800 C 288.851 280.670,288.389 285.620,287.960 289.800 C 287.531 293.980,287.006 299.470,286.794 302.000 C 286.581 304.530,286.233 308.310,286.021 310.400 C 285.808 312.490,285.434 316.810,285.190 320.000 C 284.162 333.388,284.039 334.000,282.375 334.000 C 281.975 334.000,281.536 334.180,281.400 334.400 C 281.264 334.620,280.865 334.800,280.513 334.800 C 280.161 334.800,277.876 335.416,275.436 336.168 C 272.996 336.921,267.940 338.373,264.200 339.396 C 253.333 342.368,253.175 342.413,249.400 343.625 C 247.420 344.261,244.720 345.030,243.400 345.336 C 240.891 345.917,229.479 349.092,221.600 351.401 C 206.795 355.741,201.078 357.238,200.713 356.873 C 200.472 356.632,200.334 350.869,200.354 341.782 C 200.391 324.707,200.484 325.463,198.272 324.884 C 193.196 323.556,185.342 321.340,172.200 317.530 C 169.120 316.637,165.885 315.737,165.011 315.531 C 164.137 315.325,161.257 314.512,158.611 313.725 C 155.965 312.938,151.910 311.785,149.600 311.161 C 147.290 310.538,143.616 309.482,141.435 308.814 C 139.254 308.146,137.089 307.600,136.624 307.600 C 134.148 307.600,133.835 306.458,132.778 293.600 C 132.534 290.630,132.072 285.590,131.752 282.400 C 131.432 279.210,131.000 274.530,130.794 272.000 C 130.587 269.470,130.166 265.388,129.859 262.929 C 129.309 258.532,129.361 256.595,130.038 256.176 C 130.292 256.019,153.154 255.883,161.451 255.989 C 162.660 256.005,163.103 257.478,163.378 262.400 C 164.163 276.419,165.009 281.015,166.876 281.395 C 167.604 281.544,170.180 282.272,172.600 283.014 C 182.313 285.991,199.100 290.800,199.780 290.800 C 200.213 290.800,200.321 286.346,200.372 266.334 C 200.407 252.877,200.516 241.736,200.615 241.576 C 201.058 240.859,197.511 240.785,164.281 240.813 C 123.462 240.847,127.650 241.393,128.344 236.125 C 128.600 234.186,128.988 230.080,129.208 227.000 C 129.428 223.920,129.778 220.050,129.986 218.400 C 130.194 216.750,130.656 211.897,131.011 207.615 C 131.367 203.333,131.730 199.714,131.817 199.572 C 131.905 199.430,132.160 196.544,132.385 193.157 C 132.610 189.771,133.057 184.570,133.380 181.600 C 133.702 178.630,134.149 174.040,134.373 171.400 C 134.763 166.810,135.382 160.197,136.463 149.082 C 136.740 146.240,137.171 143.790,137.433 143.573 C 137.732 143.324,149.172 143.186,168.708 143.195 C 185.649 143.203,199.756 143.115,200.055 143.000 C 200.504 142.828,200.581 140.143,200.490 127.725 C 200.404 115.858,200.489 112.592,200.890 112.344 C 201.610 111.899,302.867 111.919,303.563 112.364 M165.350 176.794 C 164.816 177.010,164.411 177.630,164.259 178.468 C 163.910 180.390,163.084 206.720,163.351 207.415 C 163.562 207.967,199.889 208.377,200.433 207.834 C 200.525 207.742,200.551 200.632,200.491 192.034 L 200.382 176.400 183.291 176.425 C 173.891 176.439,165.818 176.605,165.350 176.794 " stroke="none" fill="#e8aa2a" fill-rule="evenodd"></path><path id="path2" d="M207.040 20.336 C 206.709 20.871,206.920 37.227,207.260 37.437 C 207.429 37.542,207.567 33.661,207.567 28.814 C 207.567 20.398,207.516 19.566,207.040 20.336 M174.520 27.600 C 174.520 28.810,174.595 29.305,174.687 28.700 C 174.778 28.095,174.778 27.105,174.687 26.500 C 174.595 25.895,174.520 26.390,174.520 27.600 M174.000 33.600 C 174.000 35.733,174.163 37.200,174.400 37.200 C 174.637 37.200,174.800 35.733,174.800 33.600 C 174.800 31.467,174.637 30.000,174.400 30.000 C 174.163 30.000,174.000 31.467,174.000 33.600 M174.548 41.600 C 174.548 43.910,174.614 44.855,174.695 43.700 C 174.776 42.545,174.776 40.655,174.695 39.500 C 174.614 38.345,174.548 39.290,174.548 41.600 M213.200 43.760 C 213.200 44.101,216.117 46.816,216.293 46.640 C 216.396 46.537,215.838 45.811,215.053 45.027 C 213.743 43.716,213.200 43.345,213.200 43.760 M174.000 47.600 C 174.000 49.683,174.582 49.681,174.660 47.598 C 174.693 46.719,174.558 46.000,174.360 46.000 C 174.162 46.000,174.000 46.720,174.000 47.600 M217.200 47.813 C 217.200 48.222,220.055 50.878,220.267 50.667 C 220.384 50.549,219.838 49.811,219.053 49.027 C 217.692 47.666,217.200 47.343,217.200 47.813 M243.600 47.904 C 243.600 48.071,243.964 48.435,244.409 48.713 C 245.159 49.181,245.181 49.159,244.713 48.409 C 244.209 47.603,243.600 47.326,243.600 47.904 M214.200 52.000 C 213.683 52.222,214.745 52.336,217.200 52.322 C 220.378 52.303,220.705 52.247,219.200 51.980 C 216.868 51.565,215.197 51.571,214.200 52.000 M207.095 54.100 C 206.756 54.987,206.843 62.779,207.194 62.996 C 207.380 63.112,207.526 61.045,207.517 58.403 C 207.502 53.614,207.456 53.153,207.095 54.100 M71.812 97.391 C 71.864 99.398,72.400 99.650,72.400 97.667 C 72.400 96.750,72.260 96.000,72.088 96.000 C 71.917 96.000,71.793 96.626,71.812 97.391 M72.649 105.530 C 72.472 106.042,72.433 106.567,72.563 106.697 C 72.978 107.111,73.270 106.500,73.118 105.534 L 72.971 104.600 72.649 105.530 M326.858 107.501 C 326.898 108.877,327.026 109.907,327.142 109.792 C 327.507 109.426,327.502 106.087,327.135 105.531 C 326.917 105.202,326.812 105.952,326.858 107.501 M73.293 115.780 C 73.249 116.319,73.389 116.870,73.606 117.004 C 73.832 117.143,74.000 116.725,74.000 116.024 C 74.000 114.571,73.410 114.368,73.293 115.780 M326.267 115.467 C 325.887 115.846,325.934 118.488,326.316 118.252 C 326.626 118.060,326.966 115.200,326.679 115.200 C 326.599 115.200,326.413 115.320,326.267 115.467 M74.080 123.402 C 74.080 124.172,74.242 124.902,74.440 125.025 C 74.638 125.147,74.800 124.617,74.800 123.847 C 74.800 123.077,74.638 122.347,74.440 122.225 C 74.242 122.102,74.080 122.632,74.080 123.402 M325.200 124.576 C 325.200 125.359,325.380 126.000,325.600 126.000 C 325.820 126.000,326.000 125.471,326.000 124.824 C 326.000 124.177,325.820 123.536,325.600 123.400 C 325.362 123.253,325.200 123.729,325.200 124.576 M75.722 139.890 C 75.790 140.379,75.971 140.904,76.123 141.056 C 76.547 141.481,76.440 140.279,75.993 139.600 C 75.679 139.124,75.623 139.184,75.722 139.890 M323.600 141.200 C 323.600 142.106,323.741 142.760,323.913 142.654 C 324.390 142.359,324.463 140.086,324.004 139.803 C 323.757 139.650,323.600 140.192,323.600 141.200 M138.458 144.352 C 138.120 144.568,137.797 145.964,137.602 148.050 C 137.429 149.892,136.910 155.450,136.448 160.400 C 135.987 165.350,135.438 170.930,135.229 172.800 C 135.020 174.670,134.740 177.820,134.607 179.800 C 134.474 181.780,134.189 184.930,133.975 186.800 C 133.760 188.670,133.328 193.170,133.015 196.800 C 132.241 205.780,131.340 215.719,130.603 223.400 C 129.517 234.716,129.186 239.254,129.419 239.631 C 129.557 239.853,151.168 240.000,183.775 240.000 C 231.335 240.000,237.962 240.073,238.399 240.598 C 238.858 241.152,238.351 253.166,237.783 255.200 C 237.691 255.530,237.334 259.310,236.989 263.600 C 235.465 282.587,235.701 281.750,231.584 282.831 C 229.985 283.251,226.679 284.205,224.238 284.952 C 221.797 285.699,218.000 286.795,215.800 287.389 C 213.600 287.983,211.080 288.713,210.200 289.012 C 201.452 291.981,199.707 292.081,192.800 290.006 C 190.490 289.312,187.430 288.417,186.000 288.017 C 175.802 285.163,164.979 281.914,164.586 281.588 C 164.117 281.199,163.434 276.017,163.006 269.600 C 162.650 264.257,161.984 258.685,161.583 257.700 L 161.217 256.800 146.258 256.800 C 130.142 256.800,130.115 256.804,130.576 258.862 C 130.692 259.378,130.971 262.320,131.197 265.400 C 131.423 268.480,131.874 273.430,132.199 276.400 C 132.838 282.247,133.882 293.119,134.388 299.200 C 134.947 305.922,134.941 305.907,137.545 306.628 C 138.785 306.972,140.250 307.409,140.800 307.601 C 141.350 307.792,143.960 308.513,146.600 309.204 C 149.240 309.895,152.120 310.705,153.000 311.004 C 153.880 311.303,156.670 312.117,159.200 312.812 C 161.730 313.508,165.690 314.620,168.000 315.284 C 170.310 315.948,172.740 316.627,173.400 316.792 C 175.313 317.272,190.419 321.549,192.400 322.172 C 199.276 324.336,200.161 324.523,201.586 324.107 C 202.364 323.880,204.710 323.208,206.800 322.614 C 208.890 322.021,213.300 320.751,216.600 319.794 C 219.900 318.837,223.680 317.765,225.000 317.413 C 226.320 317.061,229.830 316.065,232.800 315.201 C 243.808 311.998,249.087 310.493,252.400 309.614 C 254.270 309.117,257.224 308.281,258.965 307.756 C 260.705 307.230,262.420 306.800,262.776 306.800 C 263.131 306.800,263.809 306.529,264.283 306.197 C 265.247 305.522,265.155 306.110,266.399 292.600 C 266.844 287.760,267.476 281.370,267.802 278.400 C 268.129 275.430,268.567 270.750,268.777 268.000 C 269.418 259.605,270.727 245.436,272.640 226.200 C 273.445 218.098,273.521 214.307,272.881 214.094 C 272.579 213.993,272.400 213.059,272.400 211.585 L 272.400 209.236 270.924 208.959 C 270.113 208.807,245.566 208.791,216.375 208.922 C 172.700 209.120,163.173 209.069,162.578 208.633 C 161.890 208.130,161.878 207.576,162.336 197.352 C 163.313 175.524,163.243 176.405,164.042 175.977 C 165.273 175.319,239.948 175.669,240.360 176.335 C 240.542 176.629,240.808 178.699,240.952 180.935 C 241.271 185.912,242.006 190.843,242.393 190.604 C 242.736 190.392,245.200 192.370,245.200 192.858 C 245.200 193.046,244.851 193.200,244.424 193.200 C 242.399 193.200,243.531 193.916,245.911 194.140 C 249.429 194.473,268.881 194.419,271.200 194.070 L 273.000 193.800 273.121 191.700 C 273.195 190.421,273.077 189.600,272.821 189.600 C 272.589 189.600,272.400 190.407,272.400 191.400 C 272.400 194.073,271.709 193.579,271.421 190.700 C 270.845 184.937,270.746 181.200,271.172 181.200 C 271.771 181.200,271.709 179.711,271.100 179.464 C 270.724 179.311,270.748 179.156,271.200 178.837 C 271.607 178.549,271.639 178.410,271.300 178.406 C 270.959 178.402,270.799 177.668,270.797 176.100 C 270.791 171.806,267.832 150.161,267.150 149.420 C 266.957 149.211,266.800 148.551,266.800 147.953 C 266.800 147.356,266.575 146.762,266.300 146.633 C 265.900 146.447,265.900 146.353,266.300 146.167 C 266.575 146.038,266.800 145.656,266.800 145.318 C 266.800 144.831,266.681 144.801,266.232 145.173 C 265.784 145.546,265.580 145.493,265.260 144.922 C 264.816 144.128,139.686 143.566,138.458 144.352 M322.800 150.867 C 322.800 152.330,323.208 152.166,323.376 150.635 C 323.439 150.066,323.335 149.600,323.145 149.600 C 322.955 149.600,322.800 150.170,322.800 150.867 M77.567 157.300 C 77.258 158.239,77.270 159.600,77.586 159.600 C 77.814 159.600,78.000 159.060,78.000 158.400 C 78.000 157.444,77.738 156.779,77.567 157.300 M322.267 157.867 C 321.840 158.293,321.959 161.200,322.403 161.200 C 322.629 161.200,322.761 160.410,322.703 159.400 C 322.646 158.410,322.585 157.600,322.567 157.600 C 322.548 157.600,322.413 157.720,322.267 157.867 M79.169 173.700 C 78.928 174.489,78.952 175.197,79.237 175.646 C 79.480 176.030,79.590 175.801,79.594 174.900 C 79.599 173.872,79.340 173.142,79.169 173.700 M320.400 176.024 C 320.400 176.737,320.567 177.144,320.800 177.000 C 321.020 176.864,321.200 176.313,321.200 175.776 C 321.200 175.239,321.020 174.800,320.800 174.800 C 320.580 174.800,320.400 175.351,320.400 176.024 M271.628 185.276 C 271.677 187.564,272.339 188.497,272.372 186.324 C 272.387 185.292,272.220 184.336,272.000 184.200 C 271.762 184.053,271.611 184.490,271.628 185.276 M319.600 184.800 C 319.600 185.547,319.707 185.653,320.080 185.280 C 320.453 184.907,320.453 184.693,320.080 184.320 C 319.707 183.947,319.600 184.053,319.600 184.800 M80.596 191.700 C 80.375 192.320,80.550 193.484,80.922 193.855 C 81.075 194.008,81.200 193.473,81.200 192.667 C 81.200 191.196,80.930 190.764,80.596 191.700 M319.067 191.867 C 318.690 192.243,318.733 194.489,319.113 194.254 C 319.417 194.066,319.752 191.600,319.473 191.600 C 319.396 191.600,319.213 191.720,319.067 191.867 M81.467 201.867 C 81.057 202.277,81.151 203.922,81.600 204.200 C 81.838 204.347,82.000 203.871,82.000 203.024 C 82.000 201.562,81.928 201.405,81.467 201.867 M318.000 203.424 C 318.000 204.004,318.173 204.340,318.400 204.200 C 318.620 204.064,318.800 203.603,318.800 203.176 C 318.800 202.749,318.620 202.400,318.400 202.400 C 318.180 202.400,318.000 202.861,318.000 203.424 M82.187 210.040 C 82.041 210.502,82.080 211.040,82.276 211.236 C 82.482 211.442,82.669 211.091,82.722 210.395 C 82.828 209.005,82.570 208.834,82.187 210.040 M317.467 209.867 C 317.087 210.246,317.134 212.888,317.516 212.652 C 317.826 212.460,318.166 209.600,317.879 209.600 C 317.799 209.600,317.613 209.720,317.467 209.867 M315.600 227.824 C 315.600 228.607,315.768 229.143,315.973 229.017 C 316.436 228.731,316.405 226.400,315.939 226.400 C 315.753 226.400,315.600 227.041,315.600 227.824 M84.536 236.778 C 84.715 238.418,85.012 238.636,85.121 237.209 C 85.169 236.573,85.027 235.940,84.805 235.803 C 84.558 235.650,84.454 236.028,84.536 236.778 M314.877 237.172 C 314.926 237.817,315.106 238.258,315.277 238.153 C 315.678 237.905,315.527 236.000,315.106 236.000 C 314.931 236.000,314.827 236.528,314.877 237.172 M85.371 244.800 C 85.371 245.240,85.513 245.600,85.686 245.600 C 85.859 245.600,86.000 245.240,86.000 244.800 C 86.000 244.360,85.859 244.000,85.686 244.000 C 85.513 244.000,85.371 244.360,85.371 244.800 M314.000 246.867 C 314.000 247.563,314.129 248.005,314.286 247.847 C 314.697 247.436,314.740 245.600,314.338 245.600 C 314.152 245.600,314.000 246.170,314.000 246.867 M87.169 260.700 C 87.153 260.865,87.079 261.314,87.005 261.698 C 86.931 262.083,87.035 262.498,87.236 262.622 C 87.436 262.746,87.600 262.297,87.600 261.624 C 87.600 260.572,87.257 259.837,87.169 260.700 M312.406 261.900 C 312.403 262.395,312.580 262.800,312.800 262.800 C 313.301 262.800,313.301 262.376,312.800 261.600 C 312.486 261.115,312.411 261.172,312.406 261.900 M87.606 269.700 C 87.620 270.842,88.388 271.426,88.394 270.300 C 88.397 269.695,88.220 269.200,88.000 269.200 C 87.780 269.200,87.603 269.425,87.606 269.700 M88.517 279.226 C 88.472 279.857,88.569 280.457,88.734 280.559 C 88.899 280.661,89.073 280.229,89.121 279.599 C 89.169 278.968,89.072 278.368,88.904 278.265 C 88.737 278.162,88.563 278.595,88.517 279.226 M310.853 280.308 C 310.893 281.442,311.085 282.271,311.280 282.151 C 311.668 281.911,311.480 278.947,311.049 278.516 C 310.901 278.368,310.813 279.174,310.853 280.308 M89.397 289.193 C 89.479 290.946,90.000 291.183,90.000 289.467 C 90.000 288.660,89.852 288.000,89.670 288.000 C 89.489 288.000,89.366 288.537,89.397 289.193 M310.000 289.200 C 310.000 289.640,310.169 290.000,310.375 290.000 C 310.581 290.000,310.723 289.640,310.690 289.200 C 310.657 288.760,310.488 288.400,310.315 288.400 C 310.142 288.400,310.000 288.760,310.000 289.200 M90.304 296.000 C 89.939 296.924,90.077 298.083,90.501 297.659 C 90.702 297.458,90.794 296.867,90.704 296.346 C 90.587 295.669,90.473 295.571,90.304 296.000 M309.200 298.267 C 309.200 299.441,309.683 299.242,309.874 297.990 C 309.941 297.555,309.816 297.200,309.597 297.200 C 309.379 297.200,309.200 297.680,309.200 298.267 M91.761 313.401 C 91.922 314.912,92.400 315.111,92.400 313.667 C 92.400 312.970,92.232 312.400,92.027 312.400 C 91.822 312.400,91.703 312.850,91.761 313.401 M307.600 314.267 C 307.600 315.073,307.733 315.600,307.896 315.438 C 308.315 315.018,308.355 312.800,307.943 312.800 C 307.754 312.800,307.600 313.460,307.600 314.267 M307.067 322.667 C 306.654 323.079,306.752 324.400,307.196 324.400 C 307.413 324.400,307.554 323.950,307.508 323.400 C 307.415 322.278,307.431 322.303,307.067 322.667 M93.264 331.968 C 93.213 332.830,93.313 333.622,93.486 333.729 C 93.659 333.836,93.852 333.130,93.916 332.162 C 93.980 331.193,93.880 330.400,93.694 330.400 C 93.508 330.400,93.315 331.105,93.264 331.968 M306.300 330.630 C 306.135 330.797,306.000 331.839,306.000 332.947 C 306.000 334.365,306.125 334.835,306.424 334.536 C 306.658 334.302,306.793 333.260,306.724 332.219 C 306.656 331.178,306.465 330.462,306.300 330.630 M94.000 340.753 C 94.000 342.315,94.608 342.690,94.721 341.199 C 94.769 340.568,94.627 339.940,94.404 339.803 C 94.166 339.656,94.000 340.046,94.000 340.753 M305.443 341.033 C 305.110 341.900,305.136 342.997,305.482 342.652 C 305.799 342.334,306.121 340.400,305.856 340.400 C 305.762 340.400,305.576 340.685,305.443 341.033 M95.104 348.000 C 94.739 348.924,94.877 350.083,95.301 349.659 C 95.502 349.458,95.594 348.867,95.504 348.346 C 95.387 347.669,95.273 347.571,95.104 348.000 M304.427 349.220 C 304.452 350.516,304.481 350.544,304.894 349.687 C 305.219 349.012,305.212 348.652,304.867 348.307 C 304.511 347.951,304.406 348.168,304.427 349.220 M151.600 367.175 C 151.600 367.381,151.948 367.524,152.372 367.492 C 152.797 367.460,153.056 367.291,152.949 367.117 C 152.675 366.673,151.600 366.720,151.600 367.175 " stroke="none" fill="#f4f4f3" fill-rule="evenodd"></path><path id="path3" d="M174.055 21.800 C 174.027 23.010,174.138 24.000,174.302 23.999 C 174.466 23.999,174.635 23.009,174.677 21.799 C 174.719 20.590,174.608 19.600,174.430 19.600 C 174.251 19.600,174.082 20.590,174.055 21.800 M191.600 44.000 C 191.600 60.000,191.738 68.400,192.000 68.400 C 192.262 68.400,192.400 60.000,192.400 44.000 C 192.400 28.000,192.262 19.600,192.000 19.600 C 191.738 19.600,191.600 28.000,191.600 44.000 M174.000 27.400 C 174.000 28.830,174.135 30.000,174.300 29.999 C 174.465 29.998,174.600 28.828,174.600 27.399 C 174.600 25.969,174.465 24.800,174.300 24.800 C 174.135 24.800,174.000 25.970,174.000 27.400 M206.909 30.000 C 206.909 30.990,206.987 31.395,207.082 30.900 C 207.178 30.405,207.178 29.595,207.082 29.100 C 206.987 28.605,206.909 29.010,206.909 30.000 M174.000 41.600 C 174.000 44.020,174.135 46.000,174.300 46.000 C 174.465 46.000,174.600 44.020,174.600 41.600 C 174.600 39.180,174.465 37.200,174.300 37.200 C 174.135 37.200,174.000 39.180,174.000 41.600 M207.600 38.147 C 207.600 38.472,211.332 42.002,211.498 41.835 C 211.597 41.737,210.855 40.834,209.849 39.828 C 208.192 38.171,207.600 37.729,207.600 38.147 M174.000 50.176 C 174.000 51.583,174.584 51.741,174.684 50.361 C 174.730 49.722,174.595 49.200,174.384 49.200 C 174.173 49.200,174.000 49.639,174.000 50.176 M245.200 49.407 C 245.200 49.696,248.074 52.459,248.221 52.312 C 248.287 52.246,247.742 51.519,247.010 50.696 C 245.776 49.309,245.200 48.899,245.200 49.407 M71.600 92.967 C 71.600 94.598,71.774 95.993,71.987 96.067 C 72.204 96.141,72.398 98.300,72.429 100.957 C 72.462 103.875,72.619 105.498,72.835 105.157 C 73.088 104.757,73.189 104.910,73.194 105.700 C 73.197 106.305,73.020 106.800,72.800 106.800 C 72.580 106.800,72.400 106.991,72.400 107.224 C 72.400 107.457,72.580 107.536,72.800 107.400 C 73.056 107.242,73.200 108.529,73.200 110.976 C 73.200 113.259,73.361 114.800,73.600 114.800 C 73.837 114.800,74.000 116.259,74.000 118.376 C 74.000 120.343,74.180 122.064,74.400 122.200 C 74.629 122.342,74.800 124.404,74.800 127.024 C 74.800 129.808,74.957 131.600,75.200 131.600 C 75.420 131.600,75.597 131.915,75.594 132.300 C 75.589 132.898,75.531 132.913,75.200 132.400 C 74.987 132.070,74.809 131.989,74.806 132.220 C 74.803 132.451,74.968 132.811,75.173 133.020 C 75.378 133.229,75.594 134.964,75.651 136.875 C 75.709 138.787,75.901 140.261,76.078 140.152 C 76.352 139.982,76.638 147.155,76.421 148.740 C 76.380 149.037,76.539 149.162,76.773 149.017 C 77.008 148.871,77.200 148.928,77.200 149.143 C 77.200 149.358,76.994 149.602,76.743 149.686 C 76.399 149.800,76.399 150.052,76.743 150.693 C 76.994 151.163,77.200 152.920,77.200 154.597 C 77.200 156.529,77.347 157.557,77.600 157.400 C 77.858 157.240,78.000 158.907,78.000 162.110 C 78.000 164.836,78.135 167.202,78.300 167.367 C 78.680 167.747,78.690 167.831,78.750 171.224 C 78.781 172.993,78.949 173.955,79.200 173.800 C 79.458 173.640,79.600 175.263,79.600 178.376 C 79.600 181.965,79.728 183.202,80.100 183.206 C 80.468 183.211,80.457 183.303,80.057 183.556 C 79.679 183.796,79.649 183.983,79.957 184.174 C 80.228 184.341,80.400 185.847,80.400 188.047 C 80.400 190.345,80.545 191.558,80.800 191.400 C 81.141 191.189,81.489 199.582,81.221 201.540 C 81.180 201.837,81.339 201.962,81.573 201.817 C 81.865 201.636,82.002 202.917,82.006 205.876 C 82.010 208.535,82.148 209.985,82.366 209.642 C 82.585 209.295,82.749 210.736,82.798 213.442 C 82.899 219.032,82.878 218.799,83.267 218.559 C 83.450 218.445,83.600 219.983,83.600 221.976 C 83.600 224.125,83.763 225.600,84.000 225.600 C 84.220 225.600,84.400 225.791,84.400 226.024 C 84.400 226.257,84.220 226.336,84.000 226.200 C 83.780 226.064,83.600 226.128,83.600 226.343 C 83.600 226.558,83.771 226.793,83.981 226.867 C 84.191 226.940,84.392 228.938,84.429 231.306 C 84.466 233.674,84.654 235.710,84.848 235.830 C 85.042 235.949,85.197 236.442,85.194 236.924 C 85.189 237.636,85.115 237.688,84.800 237.200 C 84.567 236.839,84.410 236.790,84.406 237.076 C 84.403 237.338,84.580 237.664,84.800 237.800 C 85.020 237.936,85.200 239.387,85.200 241.024 C 85.200 242.741,85.369 244.000,85.600 244.000 C 86.179 244.000,86.093 245.496,85.500 245.735 C 85.100 245.896,85.100 245.943,85.500 245.968 C 85.866 245.992,86.000 247.124,86.000 250.200 C 86.000 252.733,86.159 254.400,86.400 254.400 C 86.636 254.400,86.803 255.837,86.806 257.900 C 86.810 260.307,86.933 261.213,87.200 260.800 C 87.463 260.393,87.590 261.647,87.594 264.700 C 87.598 267.429,87.757 269.200,88.000 269.200 C 88.220 269.200,88.397 269.695,88.394 270.300 C 88.389 271.157,88.302 271.268,88.000 270.800 C 87.767 270.439,87.610 270.390,87.606 270.676 C 87.603 270.938,87.780 271.264,88.000 271.400 C 88.220 271.536,88.400 273.066,88.400 274.800 C 88.400 276.534,88.563 278.053,88.762 278.176 C 88.961 278.299,89.145 280.515,89.172 283.100 C 89.199 285.751,89.390 287.858,89.610 287.933 C 89.828 288.008,90.000 289.821,90.000 292.057 C 90.000 294.615,90.144 295.958,90.400 295.800 C 90.628 295.659,90.800 296.004,90.800 296.600 C 90.800 297.322,90.645 297.559,90.300 297.365 C 89.900 297.139,89.900 297.190,90.300 297.621 C 90.629 297.976,90.800 299.493,90.800 302.056 C 90.800 304.223,90.978 306.063,91.200 306.200 C 91.420 306.336,91.600 307.787,91.600 309.424 C 91.600 311.141,91.769 312.400,92.000 312.400 C 92.247 312.400,92.400 314.467,92.400 317.800 C 92.400 321.133,92.553 323.200,92.800 323.200 C 93.020 323.200,93.200 323.391,93.200 323.624 C 93.200 323.857,93.020 323.936,92.800 323.800 C 92.580 323.664,92.400 323.743,92.400 323.976 C 92.400 324.209,92.580 324.400,92.800 324.400 C 93.031 324.400,93.200 325.667,93.200 327.400 C 93.200 329.050,93.359 330.400,93.553 330.400 C 93.748 330.400,93.928 332.407,93.954 334.860 C 93.981 337.370,94.189 339.545,94.430 339.836 C 94.666 340.120,94.825 340.678,94.783 341.076 C 94.552 343.301,94.844 348.020,95.200 347.800 C 95.428 347.659,95.600 348.004,95.600 348.600 C 95.600 349.331,95.449 349.557,95.100 349.347 C 94.803 349.168,94.844 349.361,95.200 349.822 C 96.291 351.231,96.736 351.600,97.348 351.600 C 97.681 351.600,98.064 351.780,98.200 352.000 C 98.336 352.220,99.067 352.400,99.824 352.400 C 100.581 352.400,101.200 352.580,101.200 352.800 C 101.200 353.020,101.729 353.200,102.376 353.200 C 103.023 353.200,103.664 353.380,103.800 353.600 C 103.936 353.820,104.667 354.000,105.424 354.000 C 106.181 354.000,106.800 354.180,106.800 354.400 C 106.800 354.620,107.520 354.800,108.400 354.800 C 109.280 354.800,110.000 354.980,110.000 355.200 C 110.000 355.420,110.720 355.600,111.600 355.600 C 112.480 355.600,113.200 355.780,113.200 356.000 C 113.200 356.220,113.729 356.400,114.376 356.400 C 115.023 356.400,115.664 356.580,115.800 356.800 C 115.936 357.020,116.667 357.200,117.424 357.200 C 118.181 357.200,118.800 357.380,118.800 357.600 C 118.800 357.820,119.340 358.000,120.000 358.000 C 120.660 358.000,121.200 358.180,121.200 358.400 C 121.200 358.620,121.841 358.800,122.624 358.800 C 123.407 358.800,123.956 358.947,123.845 359.126 C 123.735 359.306,124.489 359.496,125.522 359.548 C 126.555 359.600,127.460 359.813,127.533 360.021 C 127.607 360.230,128.192 360.400,128.833 360.400 C 129.475 360.400,130.000 360.580,130.000 360.800 C 130.000 361.020,130.529 361.200,131.176 361.200 C 131.823 361.200,132.464 361.380,132.600 361.600 C 132.736 361.820,133.287 362.000,133.824 362.000 C 134.361 362.000,134.800 362.180,134.800 362.400 C 134.800 362.620,135.520 362.800,136.400 362.800 C 137.280 362.800,138.000 362.980,138.000 363.200 C 138.000 363.420,138.720 363.600,139.600 363.600 C 140.480 363.600,141.200 363.780,141.200 364.000 C 141.200 364.220,141.841 364.400,142.624 364.400 C 143.407 364.400,143.958 364.544,143.849 364.720 C 143.741 364.896,144.315 365.084,145.126 365.137 C 145.937 365.191,146.660 365.407,146.733 365.618 C 146.807 365.828,147.392 366.000,148.033 366.000 C 148.675 366.000,149.200 366.180,149.200 366.400 C 149.200 366.620,150.021 366.800,151.024 366.800 C 152.027 366.800,152.758 366.944,152.649 367.120 C 152.541 367.296,153.110 367.484,153.914 367.538 C 154.718 367.593,155.471 367.782,155.588 367.959 C 155.807 368.291,157.232 368.697,159.497 369.072 C 160.210 369.190,160.718 369.409,160.626 369.559 C 160.533 369.708,160.932 369.870,161.511 369.917 C 162.091 369.965,162.744 370.184,162.962 370.402 C 163.181 370.621,164.055 370.800,164.904 370.800 C 165.753 370.800,166.358 370.944,166.249 371.120 C 166.141 371.296,166.715 371.484,167.526 371.537 C 168.337 371.591,169.060 371.807,169.133 372.018 C 169.207 372.228,169.972 372.400,170.833 372.400 C 171.695 372.400,172.400 372.580,172.400 372.800 C 172.400 373.020,172.929 373.200,173.576 373.200 C 174.223 373.200,174.864 373.380,175.000 373.600 C 175.136 373.820,175.676 374.000,176.200 374.000 C 176.724 374.000,177.264 374.180,177.400 374.400 C 177.536 374.620,178.357 374.800,179.224 374.800 C 180.091 374.800,180.800 374.980,180.800 375.200 C 180.800 375.420,181.329 375.600,181.976 375.600 C 182.623 375.600,183.264 375.780,183.400 376.000 C 183.536 376.220,184.357 376.400,185.224 376.400 C 186.091 376.400,186.800 376.580,186.800 376.800 C 186.800 377.020,187.160 377.200,187.600 377.200 C 188.040 377.200,188.400 377.380,188.400 377.600 C 188.400 377.820,188.929 378.000,189.576 378.000 C 190.223 378.000,190.864 378.180,191.000 378.400 C 191.136 378.620,191.946 378.800,192.800 378.800 C 193.654 378.800,194.464 378.980,194.600 379.200 C 194.736 379.420,195.366 379.600,196.000 379.600 C 196.634 379.600,197.264 379.780,197.400 380.000 C 197.536 380.220,198.627 380.400,199.824 380.400 C 201.021 380.400,202.000 380.220,202.000 380.000 C 202.000 379.780,202.720 379.600,203.600 379.600 C 204.480 379.600,205.200 379.420,205.200 379.200 C 205.200 378.980,205.909 378.800,206.776 378.800 C 207.643 378.800,208.464 378.620,208.600 378.400 C 208.736 378.180,209.276 378.000,209.800 378.000 C 210.324 378.000,210.864 377.820,211.000 377.600 C 211.136 377.380,211.867 377.200,212.624 377.200 C 213.381 377.200,214.000 377.020,214.000 376.800 C 214.000 376.580,214.619 376.400,215.376 376.400 C 216.133 376.400,216.864 376.220,217.000 376.000 C 217.136 375.780,217.777 375.600,218.424 375.600 C 219.071 375.600,219.600 375.420,219.600 375.200 C 219.600 374.980,220.320 374.800,221.200 374.800 C 222.080 374.800,222.800 374.620,222.800 374.400 C 222.800 374.180,223.239 374.000,223.776 374.000 C 224.313 374.000,224.864 373.820,225.000 373.600 C 225.136 373.380,225.856 373.200,226.600 373.200 C 227.344 373.200,228.064 373.020,228.200 372.800 C 228.336 372.580,228.977 372.400,229.624 372.400 C 230.271 372.400,230.800 372.220,230.800 372.000 C 230.800 371.780,231.520 371.600,232.400 371.600 C 233.280 371.600,234.000 371.420,234.000 371.200 C 234.000 370.980,234.619 370.800,235.376 370.800 C 236.133 370.800,236.864 370.620,237.000 370.400 C 237.136 370.180,237.777 370.000,238.424 370.000 C 239.071 370.000,239.600 369.820,239.600 369.600 C 239.600 369.380,240.140 369.200,240.800 369.200 C 241.460 369.200,242.000 369.020,242.000 368.800 C 242.000 368.580,242.540 368.400,243.200 368.400 C 243.860 368.400,244.400 368.220,244.400 368.000 C 244.400 367.780,244.952 367.600,245.626 367.600 C 246.301 367.600,247.181 367.424,247.582 367.210 C 247.983 366.995,248.859 366.778,249.528 366.727 C 250.197 366.676,250.656 366.491,250.549 366.317 C 250.441 366.143,250.993 366.000,251.776 366.000 C 252.559 366.000,253.200 365.820,253.200 365.600 C 253.200 365.380,253.920 365.200,254.800 365.200 C 255.680 365.200,256.400 365.020,256.400 364.800 C 256.400 364.580,256.940 364.400,257.600 364.400 C 258.260 364.400,258.800 364.220,258.800 364.000 C 258.800 363.780,259.520 363.600,260.400 363.600 C 261.280 363.600,262.000 363.420,262.000 363.200 C 262.000 362.980,262.540 362.800,263.200 362.800 C 263.860 362.800,264.400 362.620,264.400 362.400 C 264.400 362.180,265.120 362.000,266.000 362.000 C 266.880 362.000,267.600 361.820,267.600 361.600 C 267.600 361.380,268.140 361.200,268.800 361.200 C 269.460 361.200,270.000 361.020,270.000 360.800 C 270.000 360.580,270.529 360.400,271.176 360.400 C 271.823 360.400,272.464 360.220,272.600 360.000 C 272.736 359.780,273.467 359.600,274.224 359.600 C 274.981 359.600,275.600 359.420,275.600 359.200 C 275.600 358.980,276.399 358.800,277.376 358.800 C 278.353 358.800,279.264 358.620,279.400 358.400 C 279.536 358.180,280.177 358.000,280.824 358.000 C 281.471 358.000,282.000 357.820,282.000 357.600 C 282.000 357.380,282.540 357.200,283.200 357.200 C 283.860 357.200,284.400 357.020,284.400 356.800 C 284.400 356.580,284.940 356.400,285.600 356.400 C 286.260 356.400,286.800 356.220,286.800 356.000 C 286.800 355.780,287.599 355.600,288.576 355.600 C 289.553 355.600,290.464 355.420,290.600 355.200 C 290.736 354.980,291.377 354.800,292.024 354.800 C 292.671 354.800,293.200 354.620,293.200 354.400 C 293.200 354.180,293.725 354.000,294.367 354.000 C 295.008 354.000,295.593 353.828,295.667 353.618 C 295.740 353.407,296.463 353.191,297.274 353.137 C 298.085 353.084,298.659 352.896,298.551 352.720 C 298.442 352.544,298.867 352.400,299.496 352.400 C 300.125 352.400,300.882 352.175,301.179 351.900 C 301.616 351.494,301.658 351.512,301.400 352.000 C 301.142 352.488,301.184 352.506,301.621 352.100 C 301.918 351.825,302.407 351.600,302.709 351.600 C 303.637 351.600,304.400 350.519,304.400 349.205 C 304.400 348.516,304.568 348.056,304.772 348.183 C 305.142 348.411,305.396 345.430,305.830 335.800 C 305.949 333.160,306.216 330.829,306.423 330.620 C 306.631 330.411,306.800 329.142,306.800 327.800 C 306.800 326.436,307.012 325.148,307.280 324.880 C 307.653 324.507,307.653 324.400,307.280 324.400 C 307.016 324.400,306.800 324.029,306.800 323.576 C 306.800 323.123,306.961 322.852,307.157 322.974 C 307.359 323.098,307.541 320.972,307.575 318.097 C 307.608 315.271,307.805 312.941,308.017 312.867 C 308.228 312.793,308.400 311.218,308.400 309.367 C 308.400 307.389,308.565 306.000,308.800 306.000 C 309.042 306.000,309.200 304.267,309.200 301.600 C 309.200 298.933,309.358 297.200,309.600 297.200 C 309.820 297.200,310.000 297.009,310.000 296.776 C 310.000 296.543,309.775 296.480,309.500 296.635 C 309.100 296.861,309.100 296.810,309.500 296.379 C 309.797 296.059,310.000 294.749,310.000 293.153 C 310.000 291.378,310.170 290.398,310.500 290.265 C 310.900 290.104,310.900 290.057,310.500 290.032 C 309.908 289.994,309.821 288.527,310.399 288.333 C 310.633 288.255,310.811 286.148,310.829 283.225 C 310.846 280.488,311.005 278.485,311.183 278.772 C 311.364 279.065,311.532 277.656,311.566 275.574 C 311.601 273.330,311.819 271.612,312.113 271.249 C 312.498 270.772,312.496 270.709,312.100 270.947 C 311.825 271.112,311.600 271.067,311.600 270.847 C 311.600 270.627,311.780 270.336,312.000 270.200 C 312.220 270.064,312.400 268.559,312.400 266.856 C 312.400 264.981,312.589 263.571,312.880 263.280 C 313.253 262.907,313.253 262.800,312.880 262.800 C 312.616 262.800,312.403 262.395,312.406 261.900 C 312.411 261.172,312.486 261.115,312.800 261.600 C 313.066 262.011,313.190 261.037,313.194 258.500 C 313.198 256.304,313.363 254.800,313.600 254.800 C 313.843 254.800,314.000 253.011,314.000 250.233 C 314.000 247.623,314.167 245.610,314.390 245.533 C 314.610 245.458,314.801 243.352,314.828 240.700 C 314.855 238.115,315.039 236.000,315.238 236.000 C 315.437 236.000,315.600 233.840,315.600 231.200 C 315.600 228.267,315.756 226.400,316.000 226.400 C 316.235 226.400,316.400 225.000,316.400 223.000 C 316.400 221.130,316.560 219.600,316.755 219.600 C 316.950 219.600,317.139 217.485,317.175 214.900 C 317.211 212.315,317.411 210.029,317.620 209.820 C 317.829 209.611,318.000 207.856,318.000 205.920 C 318.000 203.374,318.138 202.398,318.500 202.394 C 318.833 202.390,318.800 202.258,318.400 202.000 C 318.000 201.742,317.967 201.610,318.300 201.606 C 318.658 201.602,318.800 200.695,318.800 198.424 C 318.800 196.677,318.980 195.136,319.200 195.000 C 319.420 194.864,319.600 194.573,319.600 194.353 C 319.600 194.133,319.420 194.064,319.200 194.200 C 318.967 194.344,318.800 193.945,318.800 193.247 C 318.800 192.587,318.980 191.936,319.200 191.800 C 319.421 191.663,319.600 189.855,319.600 187.753 C 319.600 185.321,319.744 184.042,320.000 184.200 C 320.258 184.360,320.400 182.737,320.400 179.624 C 320.400 176.675,320.555 174.800,320.800 174.800 C 321.027 174.800,321.200 173.627,321.200 172.080 C 321.200 170.498,321.401 169.159,321.680 168.880 C 322.053 168.507,322.053 168.400,321.680 168.400 C 321.416 168.400,321.200 168.119,321.200 167.776 C 321.200 167.433,321.380 167.264,321.600 167.400 C 321.858 167.560,322.000 165.945,322.000 162.847 C 322.000 160.079,322.169 157.943,322.400 157.800 C 322.620 157.664,322.800 156.404,322.800 155.000 C 322.800 153.596,322.980 152.336,323.200 152.200 C 323.420 152.064,323.597 151.738,323.594 151.476 C 323.590 151.190,323.433 151.239,323.200 151.600 C 322.906 152.055,322.811 151.886,322.806 150.900 C 322.803 150.185,322.980 149.600,323.200 149.600 C 323.445 149.600,323.600 147.659,323.600 144.576 C 323.600 141.329,323.741 139.640,324.000 139.800 C 324.255 139.957,324.400 138.804,324.400 136.624 C 324.400 134.155,324.539 133.198,324.900 133.194 C 325.268 133.189,325.257 133.097,324.857 132.844 C 324.479 132.604,324.449 132.417,324.757 132.226 C 325.037 132.053,325.200 130.338,325.200 127.553 C 325.200 124.721,325.343 123.241,325.600 123.400 C 325.856 123.559,326.000 122.212,326.000 119.647 C 326.000 117.412,326.176 115.538,326.400 115.400 C 326.620 115.264,326.800 113.914,326.800 112.400 C 326.800 110.886,326.980 109.536,327.200 109.400 C 327.420 109.264,327.597 108.938,327.594 108.676 C 327.590 108.390,327.433 108.439,327.200 108.800 C 326.924 109.227,326.812 108.766,326.812 107.200 C 326.812 105.634,326.924 105.173,327.200 105.600 C 327.467 106.013,327.590 105.136,327.594 102.780 C 327.598 100.661,327.783 99.177,328.080 98.880 C 328.453 98.507,328.453 98.400,328.080 98.400 C 327.816 98.400,327.600 98.209,327.600 97.976 C 327.600 97.743,327.759 97.651,327.953 97.771 C 328.148 97.891,328.335 96.192,328.369 93.995 L 328.432 90.000 200.016 90.000 L 71.600 90.000 71.600 92.967 M326.939 94.200 C 326.880 96.863,326.568 100.570,325.609 110.000 C 325.374 112.310,325.004 116.540,324.787 119.400 C 324.570 122.260,324.207 126.400,323.980 128.600 C 323.753 130.800,323.402 134.670,323.200 137.200 C 322.998 139.730,322.640 143.240,322.404 145.000 C 322.168 146.760,321.806 150.450,321.601 153.200 C 321.395 155.950,321.028 160.360,320.786 163.000 C 320.543 165.640,320.188 169.870,319.997 172.400 C 319.805 174.930,319.455 178.530,319.219 180.400 C 318.983 182.270,318.612 185.870,318.396 188.400 C 318.179 190.930,317.821 194.440,317.599 196.200 C 317.378 197.960,317.002 202.190,316.764 205.600 C 316.527 209.010,316.184 213.330,316.004 215.200 C 315.823 217.070,315.478 220.760,315.237 223.400 C 314.996 226.040,314.617 229.820,314.394 231.800 C 314.172 233.780,313.825 237.380,313.624 239.800 C 313.422 242.220,313.053 246.270,312.804 248.800 C 312.554 251.330,312.176 255.650,311.963 258.400 C 311.751 261.150,311.403 264.930,311.192 266.800 C 310.980 268.670,310.632 272.180,310.420 274.600 C 310.207 277.020,309.835 280.890,309.594 283.200 C 309.353 285.510,308.984 289.740,308.775 292.600 C 308.566 295.460,308.212 299.780,307.988 302.200 C 307.765 304.620,307.417 308.400,307.215 310.600 C 307.013 312.800,306.662 316.130,306.435 318.000 C 305.820 323.058,304.345 339.559,304.054 344.639 C 303.766 349.669,303.600 349.995,300.931 350.762 C 299.869 351.067,298.820 351.449,298.600 351.611 C 298.380 351.773,297.570 352.000,296.800 352.115 C 296.030 352.231,294.725 352.522,293.900 352.763 C 288.354 354.379,284.536 355.465,281.800 356.204 C 277.335 357.409,273.803 358.480,273.105 358.841 C 272.723 359.038,271.969 359.200,271.429 359.200 C 270.889 359.200,270.336 359.380,270.200 359.600 C 270.064 359.820,269.543 360.000,269.042 360.000 C 268.542 360.000,266.977 360.363,265.566 360.806 C 264.155 361.249,262.280 361.806,261.400 362.045 C 260.520 362.283,259.487 362.640,259.105 362.839 C 258.723 363.038,257.956 363.200,257.400 363.200 C 256.844 363.200,256.077 363.358,255.695 363.551 C 254.539 364.135,252.196 364.800,251.295 364.800 C 250.829 364.800,250.336 364.980,250.200 365.200 C 250.064 365.420,249.524 365.600,249.000 365.600 C 248.476 365.600,247.936 365.780,247.800 366.000 C 247.664 366.220,246.963 366.400,246.243 366.400 C 245.523 366.400,244.810 366.523,244.659 366.674 C 244.191 367.143,241.451 367.988,240.380 367.994 C 239.819 367.997,239.189 368.152,238.980 368.337 C 238.771 368.522,237.520 368.896,236.200 369.168 C 233.388 369.748,231.155 370.434,230.620 370.882 C 230.411 371.057,229.751 371.200,229.153 371.200 C 228.555 371.200,227.226 371.560,226.200 372.000 C 225.174 372.440,223.941 372.800,223.461 372.800 C 222.981 372.800,221.604 373.160,220.400 373.600 C 219.196 374.040,217.828 374.400,217.359 374.400 C 216.890 374.400,215.628 374.743,214.553 375.162 C 213.479 375.581,211.070 376.323,209.200 376.810 C 204.992 377.906,203.264 378.402,202.081 378.851 C 200.588 379.418,198.592 379.254,196.600 378.400 C 195.574 377.960,194.206 377.600,193.561 377.600 C 192.917 377.600,192.077 377.438,191.695 377.239 C 191.313 377.040,190.190 376.660,189.200 376.393 C 187.115 375.830,185.337 375.259,184.200 374.787 C 183.475 374.485,180.498 373.682,176.800 372.791 C 174.868 372.325,172.987 371.802,170.400 371.011 C 169.190 370.640,167.570 370.180,166.800 369.987 C 166.030 369.794,164.192 369.268,162.716 368.818 C 161.240 368.368,159.611 368.000,159.096 368.000 C 158.581 368.000,157.989 367.851,157.780 367.670 C 157.571 367.488,156.590 367.104,155.600 366.816 C 154.610 366.528,152.798 365.957,151.573 365.546 C 150.349 365.136,149.022 364.800,148.626 364.800 C 148.229 364.800,146.801 364.444,145.453 364.009 C 144.104 363.575,141.650 362.838,140.000 362.373 C 138.350 361.907,136.587 361.363,136.081 361.163 C 135.576 360.963,134.641 360.800,134.005 360.800 C 133.368 360.800,132.736 360.620,132.600 360.400 C 132.464 360.180,131.911 360.000,131.371 360.000 C 130.831 360.000,130.077 359.841,129.695 359.647 C 128.249 358.911,126.914 358.467,124.200 357.817 C 122.660 357.448,120.770 356.966,120.000 356.745 C 119.230 356.525,118.150 356.253,117.600 356.142 C 117.050 356.031,116.240 355.797,115.800 355.622 C 113.708 354.792,109.605 353.600,108.842 353.600 C 108.373 353.600,107.677 353.442,107.295 353.249 C 106.045 352.618,103.765 352.000,102.684 352.000 C 102.101 352.000,100.983 351.640,100.200 351.200 C 99.417 350.760,98.466 350.394,98.088 350.387 C 96.377 350.356,96.079 349.570,95.885 344.582 C 95.783 341.952,95.505 337.910,95.266 335.600 C 95.028 333.290,94.625 328.970,94.371 326.000 C 94.117 323.030,93.753 319.160,93.562 317.400 C 93.370 315.640,93.029 312.310,92.803 310.000 C 92.577 307.690,92.214 304.090,91.995 302.000 C 91.776 299.910,91.436 295.680,91.238 292.600 C 91.040 289.520,90.669 285.110,90.413 282.800 C 90.157 280.490,89.768 276.530,89.550 274.000 C 89.332 271.470,88.980 267.960,88.769 266.200 C 88.558 264.440,88.223 260.750,88.024 258.000 C 87.826 255.250,87.460 251.020,87.211 248.600 C 86.962 246.180,86.591 242.220,86.388 239.800 C 86.184 237.380,85.822 233.510,85.582 231.200 C 85.343 228.890,84.981 225.200,84.780 223.000 C 84.578 220.800,84.240 217.200,84.030 215.000 C 83.819 212.800,83.466 208.390,83.246 205.200 C 83.025 202.010,82.641 197.780,82.393 195.800 C 82.145 193.820,81.774 190.220,81.567 187.800 C 81.361 185.380,81.009 181.690,80.785 179.600 C 80.308 175.164,79.854 170.005,79.252 162.200 C 78.754 155.754,78.086 148.723,77.560 144.400 C 77.359 142.750,77.023 139.330,76.813 136.800 C 76.602 134.270,76.243 130.400,76.013 128.200 C 75.784 126.000,75.423 121.680,75.213 118.600 C 75.002 115.520,74.641 111.470,74.410 109.600 C 74.180 107.730,73.819 103.770,73.609 100.800 C 73.399 97.830,73.109 94.733,72.964 93.917 C 72.819 93.102,72.807 92.158,72.937 91.819 C 73.149 91.267,86.154 91.214,200.087 91.302 L 327.000 91.400 326.939 94.200 M137.838 143.406 C 136.905 143.871,136.255 149.132,134.356 171.600 C 134.142 174.130,133.703 178.630,133.380 181.600 C 133.058 184.570,132.610 189.771,132.385 193.157 C 132.160 196.544,131.905 199.430,131.817 199.572 C 131.730 199.714,131.367 203.333,131.011 207.615 C 130.656 211.897,130.194 216.750,129.986 218.400 C 129.778 220.050,129.428 223.920,129.208 227.000 C 128.988 230.080,128.600 234.186,128.344 236.125 C 127.649 241.401,120.953 240.819,182.414 240.825 C 211.765 240.827,236.182 240.931,236.675 241.055 C 238.002 241.388,238.088 242.193,237.423 248.059 C 237.090 250.997,236.626 256.550,236.391 260.400 C 236.157 264.250,235.803 268.390,235.605 269.600 C 235.408 270.810,235.132 273.600,234.992 275.800 C 234.658 281.065,234.654 281.073,232.682 281.546 C 231.757 281.767,227.220 283.064,222.600 284.429 C 217.980 285.793,213.030 287.236,211.600 287.635 C 210.170 288.034,207.740 288.733,206.200 289.189 C 199.832 291.076,200.067 291.078,193.200 289.082 C 180.129 285.282,176.863 284.320,172.600 283.014 C 170.180 282.272,167.604 281.544,166.876 281.395 C 165.009 281.015,164.163 276.419,163.378 262.400 C 163.103 257.478,162.660 256.005,161.451 255.989 C 153.154 255.883,130.292 256.019,130.038 256.176 C 129.361 256.595,129.309 258.532,129.859 262.929 C 130.166 265.388,130.587 269.470,130.794 272.000 C 131.000 274.530,131.432 279.210,131.752 282.400 C 132.072 285.590,132.534 290.630,132.778 293.600 C 133.835 306.458,134.148 307.600,136.624 307.600 C 137.089 307.600,139.254 308.146,141.435 308.814 C 143.616 309.482,147.290 310.538,149.600 311.161 C 151.910 311.785,155.965 312.938,158.611 313.725 C 161.257 314.512,164.137 315.325,165.011 315.531 C 165.885 315.737,169.120 316.637,172.200 317.530 C 187.250 321.893,195.257 324.140,198.473 324.903 C 200.462 325.374,201.058 325.280,206.600 323.610 C 208.140 323.146,210.300 322.522,211.400 322.224 C 212.500 321.926,215.560 321.051,218.200 320.280 C 220.840 319.510,223.810 318.701,224.800 318.482 C 225.790 318.263,229.570 317.176,233.200 316.066 C 236.830 314.956,240.520 313.873,241.400 313.659 C 244.436 312.921,255.175 309.911,260.000 308.446 C 261.430 308.011,263.173 307.542,263.872 307.402 C 266.354 306.907,266.060 308.767,268.991 275.000 C 269.297 271.480,269.727 267.070,269.948 265.200 C 270.168 263.330,270.462 260.090,270.600 258.000 C 270.739 255.910,271.189 250.780,271.600 246.600 C 272.011 242.420,272.462 237.470,272.603 235.600 C 272.744 233.730,273.016 231.120,273.209 229.800 C 273.401 228.480,273.757 224.520,274.000 221.000 C 274.243 217.480,274.621 213.443,274.840 212.030 C 275.535 207.539,282.049 208.018,218.590 207.901 L 163.400 207.800 163.536 198.000 C 163.711 185.312,164.160 177.680,164.766 177.074 C 165.488 176.352,237.950 176.183,238.933 176.902 C 239.522 177.332,239.736 178.705,240.256 185.408 C 240.597 189.803,241.069 193.805,241.305 194.300 L 241.735 195.200 257.619 195.200 C 270.962 195.200,273.579 195.108,273.981 194.623 C 274.587 193.893,274.218 189.044,273.112 183.200 C 272.674 180.890,272.181 177.650,272.016 176.000 C 271.584 171.683,270.462 163.155,269.805 159.200 C 269.495 157.330,269.128 154.540,268.990 153.000 C 268.851 151.460,268.576 149.660,268.378 149.000 C 268.181 148.340,267.940 147.143,267.844 146.339 C 267.635 144.582,266.951 143.202,266.286 143.195 C 243.234 142.935,138.438 143.107,137.838 143.406 M265.901 144.702 C 265.993 144.979,266.233 145.103,266.434 144.979 C 266.638 144.853,266.800 145.703,266.800 146.896 C 266.800 148.075,266.957 149.211,267.150 149.420 C 267.832 150.161,270.791 171.806,270.797 176.100 C 270.799 177.668,270.959 178.402,271.300 178.406 C 271.639 178.410,271.607 178.549,271.200 178.837 C 270.748 179.156,270.724 179.311,271.100 179.464 C 271.413 179.591,271.600 180.470,271.600 181.810 C 271.600 182.988,271.780 184.064,272.000 184.200 C 272.220 184.336,272.400 185.607,272.400 187.024 C 272.400 188.560,272.570 189.600,272.821 189.600 C 273.077 189.600,273.195 190.419,273.121 191.696 L 273.000 193.792 270.800 194.124 C 266.766 194.731,243.432 194.289,242.734 193.592 C 242.127 192.984,241.999 192.074,241.060 181.724 C 240.797 178.823,240.436 176.303,240.258 176.124 C 239.778 175.645,164.933 175.501,164.042 175.977 C 163.243 176.405,163.312 175.534,162.338 197.309 C 161.959 205.764,161.962 208.122,162.350 208.509 C 162.733 208.892,174.907 209.000,217.786 209.000 C 248.006 209.000,272.854 209.122,273.004 209.272 C 273.507 209.773,273.296 219.730,272.646 226.200 C 270.885 243.732,269.428 259.471,268.777 268.000 C 268.567 270.750,268.129 275.430,267.802 278.400 C 267.476 281.370,266.844 287.760,266.399 292.600 C 265.155 306.110,265.247 305.522,264.283 306.197 C 263.809 306.529,263.131 306.800,262.776 306.800 C 262.420 306.800,260.705 307.230,258.965 307.756 C 257.224 308.281,254.270 309.117,252.400 309.614 C 249.087 310.493,243.808 311.998,232.800 315.201 C 229.830 316.065,226.320 317.061,225.000 317.413 C 223.680 317.765,219.900 318.837,216.600 319.794 C 213.300 320.751,208.890 322.021,206.800 322.614 C 204.710 323.208,202.364 323.880,201.586 324.107 C 200.161 324.523,199.276 324.336,192.400 322.172 C 190.419 321.549,175.313 317.272,173.400 316.792 C 172.740 316.627,170.310 315.948,168.000 315.284 C 165.690 314.620,161.730 313.508,159.200 312.812 C 156.670 312.117,153.880 311.303,153.000 311.004 C 152.120 310.705,149.240 309.895,146.600 309.204 C 143.960 308.513,141.350 307.792,140.800 307.601 C 140.250 307.409,138.785 306.972,137.545 306.628 C 134.941 305.907,134.947 305.922,134.388 299.200 C 133.882 293.119,132.838 282.247,132.199 276.400 C 131.874 273.430,131.423 268.480,131.197 265.400 C 130.971 262.320,130.692 259.378,130.576 258.862 C 130.115 256.804,130.142 256.800,146.258 256.800 L 161.217 256.800 161.583 257.700 C 161.984 258.685,162.650 264.257,163.006 269.600 C 163.434 276.017,164.117 281.199,164.586 281.588 C 164.979 281.914,175.802 285.163,186.000 288.017 C 187.430 288.417,190.490 289.312,192.800 290.006 C 199.707 292.081,201.452 291.981,210.200 289.012 C 211.080 288.713,213.600 287.983,215.800 287.389 C 218.000 286.795,221.797 285.699,224.238 284.952 C 226.679 284.205,229.985 283.251,231.584 282.831 C 235.701 281.750,235.465 282.587,236.989 263.600 C 237.334 259.310,237.691 255.530,237.783 255.200 C 238.351 253.166,238.858 241.152,238.399 240.598 C 237.962 240.073,231.335 240.000,183.775 240.000 C 151.168 240.000,129.557 239.853,129.419 239.631 C 129.186 239.254,129.517 234.716,130.603 223.400 C 131.340 215.719,132.241 205.780,133.015 196.800 C 133.328 193.170,133.760 188.670,133.975 186.800 C 134.189 184.930,134.474 181.780,134.607 179.800 C 134.740 177.820,135.020 174.670,135.229 172.800 C 135.438 170.930,135.987 165.350,136.448 160.400 C 136.910 155.450,137.429 149.892,137.602 148.050 C 137.797 145.966,138.120 144.568,138.458 144.351 C 139.386 143.754,265.701 144.103,265.901 144.702 " stroke="none" fill="#e7c57c" fill-rule="evenodd"></path><path id="path4" d="M174.895 35.500 L 174.800 51.600 163.771 51.600 C 154.747 51.600,152.639 51.704,152.171 52.171 C 151.713 52.630,151.600 54.370,151.600 60.950 L 151.600 69.157 168.800 69.160 C 179.435 69.161,186.000 69.017,186.000 68.781 C 186.000 68.546,179.650 68.400,169.392 68.400 L 152.783 68.400 152.892 60.500 L 153.000 52.600 163.915 52.494 C 172.129 52.413,174.877 52.265,175.020 51.893 C 175.124 51.621,175.160 44.199,175.100 35.399 L 174.991 19.400 174.895 35.500 M191.200 43.813 C 191.200 64.966,191.124 68.054,190.600 68.255 C 189.733 68.588,189.863 69.200,190.800 69.200 C 191.591 69.200,191.600 68.933,191.600 44.400 C 191.600 30.760,191.510 19.600,191.400 19.600 C 191.290 19.600,191.200 30.496,191.200 43.813 M207.600 20.386 C 207.600 21.073,207.738 21.128,208.626 20.790 C 209.981 20.275,246.668 20.263,246.986 20.778 C 247.574 21.728,247.484 36.058,246.887 36.656 C 246.410 37.133,245.054 37.238,239.848 37.197 C 236.302 37.170,233.175 37.159,232.900 37.174 C 231.872 37.228,232.464 38.349,234.500 40.201 C 235.655 41.252,238.998 44.465,241.929 47.340 L 247.257 52.568 247.329 60.184 L 247.400 67.800 227.500 67.904 C 210.180 67.994,207.600 68.085,207.600 68.604 C 207.600 69.483,246.950 69.507,247.829 68.629 C 248.284 68.173,248.400 66.504,248.400 60.409 L 248.400 52.761 245.600 50.000 C 244.060 48.481,242.800 46.960,242.800 46.619 C 242.800 46.267,242.456 46.000,242.000 46.000 C 241.535 46.000,241.200 45.733,241.200 45.363 C 241.200 45.012,240.840 44.631,240.400 44.516 C 239.960 44.401,239.600 44.052,239.600 43.741 C 239.600 43.430,239.285 43.056,238.900 42.910 C 238.011 42.573,237.427 41.989,237.090 41.100 C 236.944 40.715,236.631 40.400,236.394 40.400 C 235.957 40.400,234.000 38.617,234.000 38.218 C 234.000 38.098,237.243 38.000,241.208 38.000 L 248.415 38.000 248.308 28.900 L 248.200 19.800 227.900 19.696 C 207.885 19.594,207.600 19.604,207.600 20.386 M207.600 37.408 C 207.600 37.522,210.840 40.849,214.800 44.800 C 218.760 48.751,222.000 52.168,222.000 52.392 C 222.000 52.616,222.270 52.800,222.600 52.800 C 223.755 52.800,223.157 52.059,217.555 46.551 C 214.450 43.498,211.090 40.145,210.089 39.100 C 208.454 37.394,207.600 36.814,207.600 37.408 M207.600 52.800 C 207.600 53.020,207.870 53.200,208.200 53.200 C 208.530 53.200,208.800 53.020,208.800 52.800 C 208.800 52.580,208.530 52.400,208.200 52.400 C 207.870 52.400,207.600 52.580,207.600 52.800 M187.200 68.800 C 187.200 69.020,187.560 69.200,188.000 69.200 C 188.440 69.200,188.800 69.020,188.800 68.800 C 188.800 68.580,188.440 68.400,188.000 68.400 C 187.560 68.400,187.200 68.580,187.200 68.800 " stroke="none" fill="#747474" fill-rule="evenodd"></path><path id="path5" d="M200.900 112.272 C 199.923 112.652,200.204 142.267,201.189 142.794 C 201.725 143.081,212.226 143.211,233.889 143.198 C 251.440 143.188,266.019 143.185,266.286 143.190 C 266.952 143.204,267.635 144.584,267.844 146.339 C 267.940 147.143,268.181 148.340,268.378 149.000 C 268.576 149.660,268.851 151.460,268.990 153.000 C 269.128 154.540,269.495 157.330,269.805 159.200 C 270.462 163.155,271.584 171.683,272.016 176.000 C 272.181 177.650,272.674 180.890,273.112 183.200 C 274.218 189.044,274.587 193.893,273.981 194.623 C 273.579 195.108,270.962 195.200,257.619 195.200 L 241.735 195.200 241.305 194.300 C 241.069 193.805,240.597 189.803,240.256 185.408 C 239.739 178.747,239.520 177.331,238.941 176.908 C 238.404 176.514,233.984 176.400,219.324 176.400 L 200.400 176.400 200.400 191.810 L 200.400 207.220 201.426 207.610 C 202.065 207.853,215.928 208.000,238.164 208.000 C 279.402 208.000,275.530 207.572,274.837 212.049 C 274.620 213.452,274.243 217.480,274.000 221.000 C 273.757 224.520,273.401 228.480,273.209 229.800 C 273.016 231.120,272.744 233.730,272.603 235.600 C 272.462 237.470,272.011 242.420,271.600 246.600 C 271.189 250.780,270.739 255.910,270.600 258.000 C 270.462 260.090,270.168 263.330,269.948 265.200 C 269.727 267.070,269.297 271.480,268.991 275.000 C 266.060 308.767,266.354 306.907,263.872 307.402 C 263.173 307.542,261.430 308.011,260.000 308.446 C 255.175 309.911,244.436 312.921,241.400 313.659 C 240.520 313.873,236.830 314.956,233.200 316.066 C 229.570 317.176,225.790 318.263,224.800 318.482 C 223.810 318.701,220.840 319.510,218.200 320.280 C 215.560 321.051,212.500 321.926,211.400 322.224 C 210.300 322.522,208.140 323.149,206.600 323.616 C 205.060 324.083,202.990 324.657,202.000 324.891 L 200.200 325.317 200.277 340.915 C 200.321 349.992,200.510 356.670,200.729 356.889 C 201.075 357.235,207.106 355.649,221.600 351.401 C 229.479 349.092,240.891 345.917,243.400 345.336 C 244.720 345.030,247.420 344.261,249.400 343.625 C 253.175 342.413,253.333 342.368,264.200 339.396 C 267.940 338.373,272.996 336.921,275.436 336.168 C 277.876 335.416,280.161 334.800,280.513 334.800 C 280.865 334.800,281.264 334.620,281.400 334.400 C 281.536 334.180,281.975 334.000,282.375 334.000 C 284.039 334.000,284.162 333.388,285.190 320.000 C 285.434 316.810,285.808 312.490,286.021 310.400 C 286.233 308.310,286.581 304.530,286.794 302.000 C 287.006 299.470,287.531 293.980,287.960 289.800 C 288.389 285.620,288.851 280.670,288.987 278.800 C 289.306 274.417,290.292 263.330,290.820 258.200 C 291.047 256.000,291.502 251.230,291.831 247.600 C 292.161 243.970,292.687 238.300,293.000 235.000 C 293.313 231.700,293.838 226.030,294.166 222.400 C 294.495 218.770,294.949 214.090,295.177 212.000 C 295.404 209.910,295.786 205.950,296.026 203.200 C 296.266 200.450,296.630 196.310,296.835 194.000 C 297.040 191.690,297.385 187.640,297.602 185.000 C 297.820 182.360,298.169 178.400,298.378 176.200 C 298.588 174.000,299.036 169.230,299.374 165.600 C 299.712 161.970,300.078 158.460,300.186 157.800 C 300.294 157.140,300.747 152.100,301.192 146.600 C 301.637 141.100,302.189 134.800,302.420 132.600 C 302.828 128.704,303.233 124.078,303.831 116.462 C 304.068 113.449,304.016 112.655,303.563 112.364 C 302.989 111.998,201.841 111.907,200.900 112.272 M201.800 241.079 C 201.360 241.188,200.873 241.396,200.718 241.541 C 200.412 241.827,200.189 290.322,200.493 290.626 C 200.595 290.728,201.921 290.447,203.439 290.002 C 204.958 289.557,207.460 288.828,209.000 288.382 C 210.540 287.936,212.700 287.301,213.800 286.972 C 219.891 285.147,231.230 281.887,232.682 281.542 C 234.654 281.074,234.657 281.067,234.992 275.800 C 235.132 273.600,235.408 270.810,235.605 269.600 C 235.803 268.390,236.157 264.250,236.391 260.400 C 236.626 256.550,237.090 250.997,237.423 248.059 C 238.087 242.201,238.001 241.384,236.686 241.064 C 235.575 240.794,202.889 240.808,201.800 241.079 " stroke="none" fill="#efc429" fill-rule="evenodd"></path></g></svg>